<svg width="21" height="22" viewBox="0 0 21 22" fill="none" xmlns="http://www.w3.org/2000/svg">
<path fill-rule="evenodd" clip-rule="evenodd" d="M10.0045 8.66736C11.1416 8.66736 12.2322 8.21078 13.0363 7.39805C13.8404 6.58533 14.2921 5.48304 14.2921 4.33368C14.2921 3.18432 13.8404 2.08203 13.0363 1.26931C12.2322 0.456583 11.1416 0 10.0045 0C8.86734 0 7.77676 0.456583 6.97268 1.26931C6.16859 2.08203 5.71685 3.18432 5.71685 4.33368C5.71685 5.48304 6.16859 6.58533 6.97268 7.39805C7.77676 8.21078 8.86734 8.66736 10.0045 8.66736ZM0 21.6684C-1.95773e-08 20.3405 0.258774 19.0256 0.761547 17.7987C1.26432 16.5719 2.00125 15.4572 2.93025 14.5182C3.85925 13.5792 4.96214 12.8344 6.17594 12.3262C7.38974 11.818 8.69069 11.5565 10.0045 11.5565C11.3183 11.5565 12.6192 11.818 13.8331 12.3262C15.0469 12.8344 16.1497 13.5792 17.0787 14.5182C18.0077 15.4572 18.7447 16.5719 19.2474 17.7987C19.7502 19.0256 20.009 20.3405 20.009 21.6684H0Z" fill="black"/>
</svg>
