<svg width="40" height="29" viewBox="0 0 40 29" fill="none" xmlns="http://www.w3.org/2000/svg">
<path d="M30.0867 13.7178L24.0733 6.89284C23.9745 6.77964 23.8563 6.68909 23.7253 6.62643C23.5944 6.56376 23.4533 6.53021 23.3103 6.52771C23.1674 6.52521 23.0252 6.55382 22.8922 6.61188C22.7591 6.66994 22.6378 6.75631 22.5352 6.86599C22.3295 7.08525 22.211 7.38463 22.2055 7.69875C22.2001 8.01287 22.308 8.31621 22.5059 8.5425L27.7638 14.5812L22.2994 20.3732C22.0938 20.5924 21.9753 20.8918 21.9698 21.2059C21.9643 21.5201 22.0723 21.8234 22.2701 22.0497C22.3685 22.1638 22.4866 22.2553 22.6175 22.3188C22.7484 22.3823 22.8896 22.4167 23.0329 22.4198C23.1763 22.4217 23.3186 22.3923 23.4517 22.3333C23.5848 22.2744 23.7059 22.1871 23.8082 22.0765L30.0562 15.4656C30.1681 15.3562 30.2582 15.2226 30.3209 15.0732C30.3835 14.9239 30.4173 14.762 30.4202 14.5978C30.423 14.4336 30.3949 14.2706 30.3375 14.1192C30.2801 13.9677 30.1947 13.831 30.0867 13.7178V13.7178Z" fill="url(#paint0_linear)"/>
<path d="M9.24956 15.3361L15.3012 22.0584C15.4006 22.1699 15.5187 22.2585 15.6489 22.3191C15.779 22.3796 15.9185 22.4109 16.0594 22.4112C16.2003 22.4115 16.3397 22.3807 16.4696 22.3207C16.5995 22.2606 16.7173 22.1725 16.8163 22.0613C17.0147 21.8392 17.1257 21.5384 17.1251 21.2246C17.1245 20.9108 17.0124 20.6095 16.8133 20.3866L11.5207 14.4377L16.7916 8.56852C16.99 8.34636 17.101 8.04554 17.1004 7.73176C17.0998 7.41797 16.9877 7.11672 16.7886 6.8938C16.6895 6.78138 16.5715 6.69187 16.4414 6.63046C16.3112 6.56904 16.1715 6.53694 16.0303 6.53602C15.8892 6.5364 15.7496 6.56796 15.6196 6.62888C15.4897 6.68979 15.372 6.77885 15.2734 6.89089L9.24637 13.5901C9.13826 13.7011 9.05207 13.8359 8.99323 13.986C8.93438 14.1362 8.90415 14.2984 8.90446 14.4624C8.90476 14.6264 8.93557 14.7887 8.99497 14.9391C9.05437 15.0895 9.14105 15.2246 9.24956 15.3361V15.3361Z" fill="url(#paint1_linear)"/>
<defs>
<linearGradient id="paint0_linear" x1="26.3926" y1="6.58151" x2="26.1152" y2="22.4736" gradientUnits="userSpaceOnUse">
<stop stop-color="#A637A8"/>
<stop offset="1" stop-color="#FFB400"/>
</linearGradient>
<linearGradient id="paint1_linear" x1="13.0231" y1="22.4054" x2="13.0536" y2="6.53031" gradientUnits="userSpaceOnUse">
<stop stop-color="#A637A8"/>
<stop offset="1" stop-color="#FFB400"/>
</linearGradient>
</defs>
</svg>
