<svg width="24" height="24" viewBox="0 0 24 24" fill="none" xmlns="http://www.w3.org/2000/svg">
<path fill-rule="evenodd" clip-rule="evenodd" d="M23.4269 2.96513V14.8257C23.4269 15.6121 23.1183 16.3663 22.5692 16.9223C22.02 17.4784 21.2752 17.7908 20.4985 17.7908H13.1776L5.85672 23.7211V17.7908H2.92836C2.15171 17.7908 1.40687 17.4784 0.857696 16.9223C0.308522 16.3663 0 15.6121 0 14.8257V2.96513C0 2.17873 0.308522 1.42454 0.857696 0.868467C1.40687 0.312397 2.15171 0 2.92836 0H20.4985C21.2752 0 22.02 0.312397 22.5692 0.868467C23.1183 1.42454 23.4269 2.17873 23.4269 2.96513ZM7.3209 7.41283H4.39254V10.378H7.3209V7.41283ZM10.2493 7.41283H13.1776V10.378H10.2493V7.41283ZM19.0343 7.41283H16.106V10.378H19.0343V7.41283Z" fill="black"/>
</svg>
