<svg width="59" height="58" viewBox="0 0 59 58" fill="none" xmlns="http://www.w3.org/2000/svg">
<ellipse cx="29.5" cy="29" rx="29.5" ry="29" fill="#FFB400"/>
<path d="M18.5291 26.4083C18.4384 26.4083 18.4384 26.3016 18.3477 26.3016C19.7081 25.1274 20.4336 23.3129 20.4336 21.2849C20.4336 21.0714 20.4336 20.8579 20.4336 20.6444V20.5377L20.7057 17.976C20.8871 16.2682 19.8895 14.7739 18.5291 14.4536L17.7129 14.2402C15.8991 13.9199 14.0853 13.9199 12.2715 14.2402L11.546 14.4536C10.0949 14.7739 9.09735 16.2682 9.27873 17.976L9.5508 20.5377V20.6444C9.5508 20.8579 9.5508 21.0714 9.5508 21.2849C9.5508 23.2062 10.2763 25.1274 11.6367 26.3016C11.546 26.3016 11.546 26.4083 11.4553 26.4083C8.46252 27.9026 6.37665 31.2115 6.01389 35.0541C5.9232 35.5878 6.28596 36.1215 6.8301 36.2282C7.37424 36.3349 22.7009 36.2282 23.1543 36.2282H23.245C23.6985 36.1215 24.0612 35.5878 24.0612 35.0541C23.6078 31.2115 21.5219 27.9026 18.5291 26.4083ZM14.9922 29.7172L13.4505 27.9026C14.4481 27.6892 15.4457 27.6892 16.4433 27.9026L14.9922 29.7172ZM14.9922 25.5544C12.997 25.5544 11.4553 23.7398 11.3646 21.3916H18.6198C18.5291 23.7398 16.9874 25.5544 14.9922 25.5544Z" fill="white"/>
<path d="M47.3644 25.1375C47.2677 25.1375 47.2677 25.0245 47.1709 25.0245C48.622 23.7814 49.3959 21.8602 49.3959 19.713C49.3959 19.487 49.3959 19.2609 49.3959 19.0349V18.9219L49.6861 16.2097C49.8795 14.4015 48.8154 12.8193 47.3644 12.4803L46.4938 12.2543C44.5591 11.9152 42.6243 11.9152 40.6896 12.2543L39.9157 12.4803C38.3679 12.8193 37.3038 14.4015 37.4973 16.2097L37.7875 18.9219V19.0349C37.7875 19.2609 37.7875 19.487 37.7875 19.713C37.7875 21.7472 38.5614 23.7814 40.0125 25.0245C39.9157 25.0245 39.9157 25.1375 39.819 25.1375C36.6267 26.7197 34.4018 30.223 34.0148 34.2914C33.9181 34.8564 34.305 35.4215 34.8854 35.5345C35.4659 35.6475 51.8143 35.5345 52.2979 35.5345H52.3947C52.8784 35.4215 53.2653 34.8564 53.2653 34.2914C52.7816 30.223 50.5567 26.7197 47.3644 25.1375ZM43.5917 28.6408L41.9472 26.7197C43.0113 26.4936 44.0754 26.4936 45.1395 26.7197L43.5917 28.6408ZM43.5917 24.2334C41.4635 24.2334 39.819 22.3122 39.7222 19.826H47.4611C47.3644 22.3122 45.7199 24.2334 43.5917 24.2334Z" fill="white"/>
<path d="M32.5291 33.8725C32.4384 33.8725 32.4384 33.7532 32.3477 33.7532C33.7081 32.4405 34.4336 30.4118 34.4336 28.1445C34.4336 27.9058 34.4336 27.6672 34.4336 27.4285V27.3092L34.7057 24.4452C34.8871 22.5358 33.8895 20.8652 32.5291 20.5072L31.7129 20.2685C29.8991 19.9105 28.0853 19.9105 26.2715 20.2685L25.546 20.5072C24.0949 20.8652 23.0974 22.5358 23.2787 24.4452L23.5508 27.3092V27.4285C23.5508 27.6672 23.5508 27.9058 23.5508 28.1445C23.5508 30.2925 24.2763 32.4405 25.6367 33.7532C25.546 33.7532 25.546 33.8725 25.4553 33.8725C22.4625 35.5431 20.3766 39.2425 20.0139 43.5385C19.9232 44.1351 20.286 44.7318 20.8301 44.8511C21.3742 44.9705 36.7009 44.8511 37.1543 44.8511H37.245C37.6985 44.7318 38.0612 44.1351 38.0612 43.5385C37.6078 39.2425 35.5219 35.5431 32.5291 33.8725ZM28.9922 37.5718L27.4505 35.5431C28.4481 35.3045 29.4457 35.3045 30.4433 35.5431L28.9922 37.5718ZM28.9922 32.9178C26.997 32.9178 25.4553 30.8892 25.3646 28.2638H32.6198C32.5291 30.8892 30.9874 32.9178 28.9922 32.9178Z" fill="white"/>
</svg>
