<svg width="24" height="24" viewBox="0 0 24 24" fill="none" xmlns="http://www.w3.org/2000/svg">
<path d="M0 1.49712C0 1.10006 0.156851 0.719259 0.436049 0.438495C0.715246 0.157731 1.09392 0 1.48876 0H4.69407C5.04647 0.000163139 5.38739 0.126028 5.65618 0.355205C5.92497 0.584382 6.1042 0.902011 6.16199 1.25159L7.26368 7.8913C7.31632 8.20752 7.26662 8.53238 7.12189 8.81806C6.97717 9.10374 6.74507 9.33516 6.45975 9.47824L4.15514 10.6355C4.98156 12.695 6.21236 14.5659 7.77399 16.1363C9.33562 17.7066 11.196 18.9443 13.244 19.7754L14.3963 17.4579C14.5386 17.1712 14.7684 16.938 15.0522 16.7925C15.336 16.647 15.6587 16.5968 15.9729 16.6494L22.5756 17.7573C22.9232 17.8154 23.2391 17.9956 23.467 18.2659C23.6949 18.5362 23.8201 18.8791 23.8202 19.2334V22.4567C23.8202 22.8538 23.6634 23.2346 23.3842 23.5154C23.105 23.7961 22.7263 23.9539 22.3315 23.9539H19.3539C8.66461 23.9539 0 15.2406 0 4.49135V1.49712Z" fill="black"/>
</svg>
