<svg width="59" height="57" viewBox="0 0 59 57" fill="none" xmlns="http://www.w3.org/2000/svg">
<ellipse cx="29.5" cy="28.5" rx="29.5" ry="28.5" fill="#FFB400"/>
<path d="M29 11C25.2422 11 21.5687 11.9916 18.4442 13.8493C15.3196 15.707 12.8844 18.3475 11.4463 21.4368C10.0082 24.5261 9.63197 27.9255 10.3651 31.2051C11.0982 34.4847 12.9078 37.4972 15.565 39.8617C18.2222 42.2261 21.6077 43.8363 25.2933 44.4887C28.9789 45.141 32.7992 44.8062 36.271 43.5266C39.7428 42.247 42.7102 40.08 44.7979 37.2997C46.8857 34.5194 48 31.2506 48 27.9068C48 25.6865 47.5086 23.4881 46.5537 21.4368C45.5989 19.3856 44.1993 17.5218 42.435 15.9519C40.6707 14.3819 38.5762 13.1366 36.271 12.287C33.9658 11.4373 31.4951 11 29 11V11ZM29 41.4322C25.9937 41.4322 23.055 40.6389 20.5553 39.1528C18.0557 37.6666 16.1075 35.5542 14.957 33.0827C13.8066 30.6113 13.5056 27.8918 14.0921 25.2681C14.6786 22.6444 16.1262 20.2344 18.252 18.3429C20.3777 16.4513 23.0861 15.1631 26.0346 14.6412C28.9831 14.1194 32.0394 14.3872 34.8168 15.4109C37.5942 16.4346 39.9681 18.1682 41.6383 20.3925C43.3085 22.6167 44.2 25.2317 44.2 27.9068C44.2 31.4939 42.5986 34.9342 39.748 37.4707C36.8975 40.0072 33.0313 41.4322 29 41.4322V41.4322ZM29 17.7627C28.4961 17.7627 28.0128 17.9408 27.6565 18.2579C27.3002 18.575 27.1 19.005 27.1 19.4534V26.9262L23.11 28.9719C22.744 29.1565 22.4572 29.4439 22.2945 29.7891C22.1318 30.1344 22.1025 30.5179 22.2112 30.8795C22.3199 31.2412 22.5604 31.5605 22.8949 31.7875C23.2295 32.0144 23.6393 32.1361 24.06 32.1335C24.3928 32.1355 24.7204 32.0597 25.01 31.9137L29.95 29.3777L30.121 29.2255L30.425 29.0057C30.4993 28.922 30.563 28.8313 30.615 28.7352C30.6769 28.6444 30.7279 28.5481 30.767 28.4478C30.8187 28.3403 30.8508 28.2261 30.862 28.1097C30.862 28.1097 30.9 27.9068 30.9 27.9068V19.4534C30.9 19.005 30.6998 18.575 30.3435 18.2579C29.9872 17.9408 29.5039 17.7627 29 17.7627Z" fill="white"/>
</svg>
