<svg width="96" height="91" viewBox="0 0 96 91" fill="none" xmlns="http://www.w3.org/2000/svg">
<g clip-path="url(#clip0)">
<path d="M83.5872 11.7663C81.787 10.0603 79.3456 9.10193 76.8 9.10193C74.2545 9.10193 71.8131 10.0603 70.0128 11.7663L33.6 46.2826V59.15H47.1744L83.5872 24.6337C85.387 22.9272 86.398 20.613 86.398 18.2C86.398 15.787 85.387 13.4728 83.5872 11.7663Z" fill="black"/>
<path fill-rule="evenodd" clip-rule="evenodd" d="M9.60004 27.3C9.60004 24.8865 10.6115 22.5719 12.4118 20.8653C14.2122 19.1588 16.654 18.2 19.2 18.2H38.4C39.6731 18.2 40.894 18.6794 41.7942 19.5327C42.6943 20.386 43.2 21.5433 43.2 22.75C43.2 23.9567 42.6943 25.1141 41.7942 25.9673C40.894 26.8206 39.6731 27.3 38.4 27.3H19.2V72.8H67.2V54.6C67.2 53.3933 67.7058 52.236 68.6059 51.3827C69.5061 50.5294 70.727 50.05 72 50.05C73.2731 50.05 74.494 50.5294 75.3941 51.3827C76.2943 52.236 76.8 53.3933 76.8 54.6V72.8C76.8 75.2135 75.7886 77.5281 73.9883 79.2347C72.1879 80.9413 69.7461 81.9 67.2 81.9H19.2C16.654 81.9 14.2122 80.9413 12.4118 79.2347C10.6115 77.5281 9.60004 75.2135 9.60004 72.8V27.3Z" fill="black"/>
<path d="M82.9096 1.55096C83.5738 0.882386 84.3682 0.349111 85.2467 -0.0177524C86.1251 -0.384615 87.0699 -0.577719 88.0259 -0.585795C88.9819 -0.593872 89.93 -0.41676 90.8149 -0.0647937C91.6997 0.287172 92.5036 0.806943 93.1796 1.46419C93.8557 2.12144 94.3903 2.903 94.7523 3.76328C95.1143 4.62355 95.2965 5.54531 95.2882 6.47477C95.2799 7.40422 95.0813 8.32276 94.7039 9.17679C94.3266 10.0308 93.7781 10.8032 93.0904 11.449L90.2356 14.2245L80.0548 4.32646L82.9096 1.55096ZM74.9644 9.27546L44.8 38.602V48.5H54.9808L85.1488 19.1735L74.9608 9.27546H74.9644Z" fill="black"/>
</g>
<defs>
<clipPath id="clip0">
<rect width="96" height="91" fill="white"/>
</clipPath>
</defs>
</svg>
