<svg width="59" height="55" viewBox="0 0 59 55" fill="none" xmlns="http://www.w3.org/2000/svg">
<ellipse cx="29.5" cy="27.5" rx="29.5" ry="27.5" fill="#FFB400"/>
<path d="M29 26.5C29.5933 26.5 30.1734 26.3534 30.6667 26.0787C31.1601 25.804 31.5446 25.4135 31.7716 24.9567C31.9987 24.4999 32.0581 23.9972 31.9424 23.5123C31.8266 23.0273 31.5409 22.5819 31.1213 22.2322C30.7018 21.8826 30.1672 21.6445 29.5853 21.548C29.0033 21.4516 28.4001 21.5011 27.8519 21.6903C27.3038 21.8795 26.8352 22.1999 26.5056 22.6111C26.1759 23.0222 26 23.5055 26 24C26 24.663 26.3161 25.2989 26.8787 25.7678C27.4413 26.2366 28.2044 26.5 29 26.5ZM27.935 35.1375C28.0744 35.2546 28.2403 35.3476 28.4231 35.4111C28.6059 35.4746 28.802 35.5072 29 35.5072C29.198 35.5072 29.3941 35.4746 29.5769 35.4111C29.7597 35.3476 29.9256 35.2546 30.065 35.1375L36.2 30.0125C37.6249 28.8257 38.5955 27.3133 38.9889 25.6668C39.3823 24.0203 39.1809 22.3135 38.4102 20.7623C37.6395 19.2112 36.3341 17.8854 34.659 16.9526C32.984 16.0197 31.0146 15.5219 29 15.5219C26.9854 15.5219 25.016 16.0197 23.341 16.9526C21.6659 17.8854 20.3605 19.2112 19.5898 20.7623C18.8191 22.3135 18.6177 24.0203 19.0111 25.6668C19.4045 27.3133 20.3751 28.8257 21.8 30.0125L27.935 35.1375ZM21.845 23.425C21.9475 22.5338 22.2875 21.6729 22.8403 20.9051C23.393 20.1374 24.1446 19.4822 25.04 18.9875C26.2163 18.3439 27.5928 18.0009 29 18.0009C30.4072 18.0009 31.7837 18.3439 32.96 18.9875C33.8494 19.4806 34.5967 20.1317 35.1481 20.8942C35.6995 21.6567 36.0412 22.5115 36.1488 23.3972C36.2564 24.2829 36.1271 25.1775 35.7702 26.0166C35.4134 26.8556 34.8378 27.6184 34.085 28.25L29 32.4875L23.915 28.25C23.1613 27.6245 22.5844 26.8669 22.2263 26.0322C21.8682 25.1976 21.738 24.3069 21.845 23.425ZM39.5 38H18.5C18.1022 38 17.7206 38.1317 17.4393 38.3661C17.158 38.6005 17 38.9185 17 39.25C17 39.5815 17.158 39.8995 17.4393 40.1339C17.7206 40.3683 18.1022 40.5 18.5 40.5H39.5C39.8978 40.5 40.2794 40.3683 40.5607 40.1339C40.842 39.8995 41 39.5815 41 39.25C41 38.9185 40.842 38.6005 40.5607 38.3661C40.2794 38.1317 39.8978 38 39.5 38Z" fill="white"/>
</svg>
