<svg width="22" height="29" viewBox="0 0 22 29" fill="none" xmlns="http://www.w3.org/2000/svg">
<path d="M6.44462 19.9473H6.45824M6.44462 3.91496H3.72231C3.00031 3.91496 2.30788 4.22208 1.79735 4.76874C1.28681 5.3154 1 6.05683 1 6.82993V24.3197C1 25.0928 1.28681 25.8342 1.79735 26.3809C2.30788 26.9276 3.00031 27.2347 3.72231 27.2347H17.3339C18.0559 27.2347 18.7483 26.9276 19.2588 26.3809C19.7694 25.8342 20.0562 25.0928 20.0562 24.3197V6.82993C20.0562 6.05683 19.7694 5.3154 19.2588 4.76874C18.7483 4.22208 18.0559 3.91496 17.3339 3.91496H14.6116H6.44462ZM6.44462 3.91496C6.44462 4.68806 6.73144 5.42949 7.24197 5.97616C7.7525 6.52282 8.44493 6.82993 9.16694 6.82993H11.8892C12.6112 6.82993 13.3037 6.52282 13.8142 5.97616C14.3247 5.42949 14.6116 4.68806 14.6116 3.91496H6.44462ZM6.44462 3.91496C6.44462 3.14187 6.73144 2.40044 7.24197 1.85377C7.7525 1.30711 8.44493 1 9.16694 1H11.8892C12.6112 1 13.3037 1.30711 13.8142 1.85377C14.3247 2.40044 14.6116 3.14187 14.6116 3.91496H6.44462ZM10.5281 14.1173H14.6116H10.5281ZM10.5281 19.9473H14.6116H10.5281ZM6.44462 14.1173H6.45824H6.44462Z" stroke="black" stroke-width="2" stroke-linecap="round" stroke-linejoin="round"/>
</svg>
