<svg width="55" height="55" viewBox="0 0 55 55" fill="none" xmlns="http://www.w3.org/2000/svg">
<path d="M47.3466 31.5825C45.4236 31.597 43.7584 32.2132 42.3618 33.1306C41.8462 31.769 41.3305 30.5793 41.2446 29.6908C41.148 28.6589 41.0298 28.0281 41.148 26.7957C41.266 25.563 41.8032 23.8144 41.8032 23.6711C41.7923 23.5421 41.6849 22.9115 40.5785 22.8972C39.472 22.8828 38.5158 23.1838 38.4084 23.5708C38.3009 23.9578 38.0861 24.8464 37.9464 25.7636C37.753 27.1109 35.7333 31.8835 34.5838 34.3917C34.2078 33.4171 33.8855 32.5571 33.8209 31.869C33.7244 30.8373 33.6061 30.2065 33.7244 28.9741C33.8425 27.7413 34.3797 25.993 34.3797 25.8496C34.3689 25.7206 34.2615 25.09 33.1551 25.0757C32.0484 25.0614 31.0924 25.3623 30.985 25.7493C30.8775 26.1363 30.7594 27.0535 30.523 27.9421C30.2973 28.8307 27.6115 36.7995 26.9132 38.8777C26.5587 39.9383 26.2472 40.7839 26.0215 41.3572C25.7959 41.9305 26.0108 41.4002 25.9893 41.4575C25.7959 41.9448 25.6885 42.2171 25.6885 42.2171V42.2316C25.5381 42.5899 25.3769 42.9337 25.3016 42.9337C25.2479 42.9337 25.1405 41.9735 25.3231 40.655C25.7206 37.8888 26.6875 33.5749 26.6769 33.4172C26.6769 33.3456 26.8594 32.5858 26.0537 32.199C25.2694 31.812 24.9902 32.457 24.9256 32.457C24.8612 32.457 24.8075 32.6863 24.8075 32.6863C24.8075 32.6863 25.6776 27.8278 23.1423 27.8278C21.5523 27.8278 19.3607 30.1353 18.2756 32.2421C17.5881 32.7437 16.127 33.8042 14.58 34.9366C13.9891 35.3666 13.3768 35.8252 12.7966 36.2408L12.6786 36.0686C9.60604 31.6972 3.92292 28.6014 4.15927 22.7252C4.24522 20.5897 4.80386 14.9571 15.0744 8.13492C23.4863 2.54533 30.2222 4.07888 31.3931 7.48997C33.0583 12.3629 27.7941 21.421 19.0494 22.7252C15.719 23.2268 13.9677 21.5069 13.5274 20.862C13.0654 20.1884 13.001 20.1597 12.8291 20.2887C12.5498 20.4894 12.7217 21.0913 12.8291 21.4496C13.0869 22.3526 14.1612 23.9578 15.9876 24.7604C17.5882 25.4627 21.4988 25.8496 26.2258 23.4131C31.5221 20.6757 35.6582 13.0796 34.4443 6.73036C33.2088 0.266494 25.1729 -1.85469 17.5775 1.74272C13.0546 3.89256 8.15571 7.24632 4.63197 11.6463C0.442151 16.8633 -0.223923 21.421 0.0553985 23.3128C1.03313 30.0633 8.00531 34.4633 10.7985 37.7168C10.6589 37.817 10.5299 37.9173 10.4118 38.0034C9.01517 38.9205 3.69732 42.6327 2.36517 46.5596C0.861133 51.0027 2.60152 54.1989 3.76178 54.6289C7.34998 55.9618 11.0241 53.5683 13.0116 49.6269C14.9882 45.6855 14.752 40.5689 13.8388 38.2327L13.8065 38.1467L14.9023 37.2868C15.6114 36.7278 16.3097 36.2119 16.922 35.7674C16.5783 37.0143 16.3311 38.4906 16.2023 40.6404C16.0519 43.163 16.8254 46.4307 17.846 47.7206C18.2972 48.2794 18.8344 48.2939 19.1674 48.2939C20.3492 48.2939 20.8863 46.9895 21.4772 45.4274C22.2077 43.5212 22.8523 41.314 22.8523 41.314C22.8523 41.314 22.0466 47.2906 24.2489 47.2906C25.0547 47.2906 25.8604 45.9004 26.2257 45.1837V45.1981C26.2257 45.1981 26.2471 45.1551 26.2901 45.0548C26.3352 44.9658 26.3782 44.8751 26.419 44.7826V44.7539C26.7413 44.0086 27.4611 42.3031 28.5354 39.4796C29.9212 35.8392 31.2534 31.2816 31.2534 31.2816C31.2534 31.2816 31.3824 32.3995 31.7799 34.234C32.0161 35.3234 32.5318 36.5129 32.9293 37.6738C32.607 38.2757 32.4136 38.6198 32.4136 38.6198L32.4243 38.6342C32.1666 39.0928 31.8764 39.5803 31.5757 40.0674C30.4799 41.8159 29.1693 43.8083 28.9974 44.3816C28.7933 45.055 28.8362 45.5567 29.2337 45.9581C29.5238 46.2448 30.0395 46.302 30.5874 46.2448C31.5757 46.1586 32.2633 45.8291 32.6071 45.6283C33.1442 45.3704 33.7566 44.9834 34.3475 44.4101C35.4218 43.3496 36.0771 41.8448 36.0126 39.8382C35.9804 38.7346 35.7118 37.6454 35.3788 36.6135C35.4755 36.4271 35.5723 36.2407 35.6689 36.0402C37.3663 32.7293 38.6769 29.089 38.6769 29.089C38.6769 29.089 38.8059 30.2069 39.2033 32.0415C39.4074 32.9731 39.8157 33.9908 40.181 34.9941C38.591 36.7283 37.5919 38.7348 37.2481 40.0534C36.6143 42.4899 37.1084 43.5934 38.0431 43.8514C38.462 43.9661 39.0637 43.7081 39.5148 43.4501C40.0734 43.2065 40.7503 42.7907 41.3735 42.1745C42.4478 41.1139 43.4791 39.6377 43.4254 37.6455C43.3932 36.7283 43.2105 35.8253 42.9634 34.9654C44.3171 34.2201 46.0681 33.7901 48.292 34.1485C53.0727 34.8937 54.0181 38.8781 53.8356 40.5407C53.653 42.2033 52.6538 43.1205 52.3207 43.4071C51.9877 43.6794 51.8802 43.7799 51.9125 43.9804C51.9554 44.2815 52.1058 44.2671 52.3959 44.2099C52.7934 44.1237 54.9098 42.8483 54.9957 39.7813C55.1247 35.8394 52.3207 31.5397 47.3466 31.5825ZM10.4762 48.165C8.89699 50.4725 6.67316 51.3468 5.72777 50.6015C4.70717 49.8132 5.10456 46.4165 7.04917 43.9656C8.23092 42.4751 9.76718 41.0992 10.777 40.2536C11.0026 40.0673 11.3464 39.7951 11.7547 39.4653C11.8191 39.4081 11.8621 39.3793 11.8621 39.3793C11.9373 39.322 12.0232 39.2503 12.1092 39.1787C12.829 42.6757 12.1414 45.7428 10.4762 48.165ZM22.0251 37.6881C21.4772 39.4796 20.3169 44.0803 19.6186 43.8223C19.0169 43.6073 18.6517 40.1246 19.5003 36.6848C19.9301 34.9505 20.8432 32.8868 21.3804 32.084C22.2507 30.7941 23.196 30.3642 23.4324 30.8945C23.7118 31.5825 22.3689 36.5702 22.0251 37.6881ZM31.5542 43.765C31.3179 43.9228 31.103 44.0373 31.0063 43.9515C30.9311 43.8941 31.1029 43.6791 31.1029 43.6791C31.1029 43.6791 32.2954 41.9736 32.7681 41.1853C33.0367 40.7268 33.359 40.1965 33.7028 39.5944V39.7664C33.7029 41.8301 32.2203 43.206 31.5542 43.765ZM38.9024 41.5292C38.7305 41.3572 38.7521 40.8269 39.3322 39.1643C39.5579 38.505 40.0734 37.4015 40.9651 36.3552C41.0725 36.7852 41.1371 37.2007 41.1263 37.5878C41.1156 40.1676 39.7405 41.1279 38.9024 41.5292Z" fill="#CF649A"/>
</svg>
