<svg width="19" height="25" viewBox="0 0 19 25" fill="none" xmlns="http://www.w3.org/2000/svg">
<path fill-rule="evenodd" clip-rule="evenodd" d="M3.16667 0C2.32681 0 1.52136 0.32924 0.927495 0.915291C0.33363 1.50134 0 2.2962 0 3.125V21.875C0 22.7038 0.33363 23.4987 0.927495 24.0847C1.52136 24.6708 2.32681 25 3.16667 25H15.8333C16.6732 25 17.4786 24.6708 18.0725 24.0847C18.6664 23.4987 19 22.7038 19 21.875V8.45938C18.9998 7.63064 18.6661 6.83591 18.0722 6.25L12.6667 0.915625C12.0729 0.329533 11.2676 0.000176992 10.4278 0H3.16667ZM6.33333 15.625C6.33333 15.2106 6.16652 14.8132 5.86959 14.5201C5.57265 14.2271 5.16993 14.0625 4.75 14.0625C4.33007 14.0625 3.92735 14.2271 3.63041 14.5201C3.33348 14.8132 3.16667 15.2106 3.16667 15.625V20.3125C3.16667 20.7269 3.33348 21.1243 3.63041 21.4174C3.92735 21.7104 4.33007 21.875 4.75 21.875C5.16993 21.875 5.57265 21.7104 5.86959 21.4174C6.16652 21.1243 6.33333 20.7269 6.33333 20.3125V15.625ZM9.5 10.9375C9.91993 10.9375 10.3227 11.1021 10.6196 11.3951C10.9165 11.6882 11.0833 12.0856 11.0833 12.5V20.3125C11.0833 20.7269 10.9165 21.1243 10.6196 21.4174C10.3227 21.7104 9.91993 21.875 9.5 21.875C9.08007 21.875 8.67735 21.7104 8.38041 21.4174C8.08348 21.1243 7.91667 20.7269 7.91667 20.3125V12.5C7.91667 12.0856 8.08348 11.6882 8.38041 11.3951C8.67735 11.1021 9.08007 10.9375 9.5 10.9375ZM15.8333 9.375C15.8333 8.9606 15.6665 8.56317 15.3696 8.27015C15.0727 7.97712 14.6699 7.8125 14.25 7.8125C13.8301 7.8125 13.4273 7.97712 13.1304 8.27015C12.8335 8.56317 12.6667 8.9606 12.6667 9.375V20.3125C12.6667 20.7269 12.8335 21.1243 13.1304 21.4174C13.4273 21.7104 13.8301 21.875 14.25 21.875C14.6699 21.875 15.0727 21.7104 15.3696 21.4174C15.6665 21.1243 15.8333 20.7269 15.8333 20.3125V9.375Z" fill="black"/>
</svg>
