<svg width="48" height="48" viewBox="0 0 48 48" fill="none" xmlns="http://www.w3.org/2000/svg">
<path d="M24 48C37.2548 48 48 37.2548 48 24C48 10.7452 37.2548 0 24 0C10.7452 0 0 10.7452 0 24C0 37.2548 10.7452 48 24 48Z" fill="#FF0302"/>
<path d="M39.3329 16.2469C38.9673 14.8594 37.8891 13.7766 36.5016 13.3969C34.0079 12.7266 24.0001 12.7266 24.0001 12.7266C24.0001 12.7266 13.9923 12.7266 11.4985 13.3969C10.1157 13.7719 9.03759 14.8594 8.66727 16.2469C8.00165 18.7594 8.00165 24 8.00165 24C8.00165 24 8.00165 29.2406 8.67196 31.7531C9.04227 33.1406 10.1157 34.2234 11.5032 34.6031C13.997 35.2734 24.0048 35.2734 24.0048 35.2734C24.0048 35.2734 34.0126 35.2734 36.5063 34.6031C37.8891 34.2281 38.9673 33.1406 39.3376 31.7531C40.0079 29.2406 40.0079 24 40.0079 24C40.0079 24 39.9985 18.7594 39.3329 16.2469ZM20.7282 28.7578V19.2422L29.0907 24L20.7282 28.7578Z" fill="white"/>
</svg>
