<svg width="32" height="38" viewBox="0 0 32 38" fill="none" xmlns="http://www.w3.org/2000/svg">
<path fill-rule="evenodd" clip-rule="evenodd" d="M22.452 27.146L24.0442 23.2621L24.6605 20.9887C24.8686 20.2202 24.4564 19.486 23.5593 19.486H20.482C20.189 19.7421 19.1707 19.9802 18.8514 20.198V24.2586L19.2151 25.6625L19.5647 28.0711L22.452 27.146Z" fill="#EFF6FF"/>
<path fill-rule="evenodd" clip-rule="evenodd" d="M12.5352 24.2586V22.8183V20.198C12.521 20.1879 12.5069 20.1779 12.4907 20.1678C12.1896 19.958 11.8966 19.73 11.6178 19.486H7.82931C6.93017 19.486 6.51802 20.2202 6.72609 20.9887L7.34439 23.2621L8.66038 26.7902L11.6542 28.5218L12.1735 25.6625L12.2664 25.2974L12.5352 24.2586Z" fill="#EFF6FF"/>
<path fill-rule="evenodd" clip-rule="evenodd" d="M13.8687 32.2124L11.046 27.2642L9.51238 25.6081L7.34435 23.2621C4.30747 24.301 1.46661 25.9571 1.2383 29.1765L0.761426 35.9018C0.71495 36.5715 0.888734 36.741 1.58779 36.741H6.13805L11.0459 36.739L13.8687 32.2124Z" fill="#1D7CF1"/>
<path fill-rule="evenodd" clip-rule="evenodd" d="M30.6251 35.9018L30.1482 29.1765C29.9199 25.9571 27.079 24.3009 24.0441 23.2621L21.8741 25.6081L20.3405 27.2642L18.4695 32.757L20.3405 36.148V36.739L25.2484 36.741H29.8006C30.4978 36.741 30.6735 36.5715 30.6251 35.9018V35.9018Z" fill="#1D7CF1"/>
<path fill-rule="evenodd" clip-rule="evenodd" d="M20.3223 36.7269L18.5038 33.0435L20.3223 29.348V27.2521L19.9283 25.6626L19.5647 24.2587V18.6489C18.9747 19.0523 18.3462 19.3872 17.6937 19.6292C16.9703 19.8955 16.3318 20.0306 15.6933 20.0306C15.0549 20.0306 14.4163 19.8955 13.693 19.6292C13.0404 19.3871 12.412 19.0523 11.824 18.6489V24.2587L11.4604 25.6626L11.0461 27.2642V29.3036L13.4324 32.9144L11.0461 36.739L20.3223 36.7269Z" fill="#FFBC85"/>
<path fill-rule="evenodd" clip-rule="evenodd" d="M8.92176 13.0772L7.70606 11.0661H6.53413C5.8633 11.0661 5.31372 11.6289 5.31372 12.2986V13.0671C5.31372 14.3702 6.61496 15.0742 7.95048 15.0883C7.79096 14.5498 8.92176 13.0772 8.92176 13.0772Z" fill="#F5A96C"/>
<path fill-rule="evenodd" clip-rule="evenodd" d="M23.436 15.0884C24.7716 15.0743 26.0727 14.3703 26.0727 13.0672V12.2987C26.0727 11.629 25.5252 11.0662 24.8543 11.0662H23.6824L22.1455 13.2932C22.1456 13.8036 23.5956 14.5498 23.436 15.0884Z" fill="#F5A96C"/>
<path fill-rule="evenodd" clip-rule="evenodd" d="M23.436 15.0884C23.5956 14.5498 23.6825 14.0153 23.6825 13.5049V11.0661C20.977 9.02353 19.5646 7.50544 16.24 7.17333C14.6257 7.01208 8.73165 6.8583 7.70605 11.0661V13.5049C7.70605 14.0153 7.79095 14.5499 7.95055 15.0884C8.41324 16.6497 9.49423 18.2594 10.9046 19.4859C11.1855 19.73 11.4764 19.9579 11.7795 20.1677C12.3796 20.5832 13.0242 20.9302 13.693 21.1763C14.4164 21.4446 15.0548 21.5777 15.6933 21.5777C16.3318 21.5777 16.9703 21.4446 17.6936 21.1763C18.6998 20.8051 19.6474 20.212 20.4819 19.4858C21.8943 18.2594 22.9753 16.6497 23.436 15.0884V15.0884Z" fill="#FFBC85"/>
<path fill-rule="evenodd" clip-rule="evenodd" d="M23.6825 11.0662C25.6788 10.2896 26.4264 8.41355 26.6022 6.25117C26.6547 5.59762 26.6709 5.49273 26.1253 5.8094C25.2484 6.3177 24.4927 6.5699 23.6138 6.66468C22.1367 0.0684425 12.0907 0.0623941 10.7227 4.31863C7.95048 4.07256 7.70605 6.8845 7.70605 7.94154V11.0662C8.67791 9.49072 10.5004 8.13723 11.9048 8.94811C14.6587 10.5357 18.4049 11.163 21.5912 11.161C22.3247 11.161 23.0278 11.1286 23.6825 11.0662Z" fill="#2E2C2C"/>
<path fill-rule="evenodd" clip-rule="evenodd" d="M20.482 19.486H23.5593C22.5228 20.7971 21.2579 21.5738 19.7547 22.2939C19.692 22.3242 19.6294 22.3544 19.5647 22.3826V20.1981C19.5788 20.188 19.593 20.1779 19.6092 20.1678C19.9102 19.958 20.2032 19.73 20.482 19.486Z" fill="#D9EEFF"/>
<path fill-rule="evenodd" clip-rule="evenodd" d="M10.9046 19.486C9.88018 19.486 8.85373 19.486 7.82935 19.486C8.86385 20.7971 10.1287 21.5738 11.632 22.2939C11.6946 22.3242 11.7593 22.3544 11.8239 22.3826V20.1981C11.8078 20.188 11.7936 20.1779 11.7795 20.1678C11.4763 19.958 11.1854 19.73 10.9046 19.486V19.486Z" fill="#D9EEFF"/>
<path fill-rule="evenodd" clip-rule="evenodd" d="M19.5645 22.8183V20.198C18.9745 20.6014 18.3461 20.9363 17.6936 21.1763C16.9702 21.4446 16.3317 21.5777 15.6933 21.5777C15.0548 21.5777 14.4163 21.4446 13.693 21.1763C13.0403 20.9363 12.412 20.6014 11.824 20.198V22.8183C12.0968 22.9433 12.3736 23.0583 12.6544 23.1612C13.7536 23.5687 14.7234 23.7724 15.6933 23.7724C16.6631 23.7724 17.633 23.5687 18.7342 23.1612C19.013 23.0584 19.2898 22.9434 19.5645 22.8183Z" fill="#F5A96C"/>
<path fill-rule="evenodd" clip-rule="evenodd" d="M20.3404 36.1479V29.348C20.0879 29.4468 19.8212 29.5355 19.5403 29.6182C18.4391 29.937 17.1399 30.1226 15.7498 30.1226C14.5657 30.1226 13.4504 29.9874 12.4644 29.7514C11.9532 29.6283 11.4764 29.477 11.046 29.3036V36.7389H11.1187H15.6932H20.2677H20.3404V36.1479H20.3404Z" fill="#FFCB00"/>
<path fill-rule="evenodd" clip-rule="evenodd" d="M20.3406 36.1479V29.348C20.088 29.4468 19.8213 29.5355 19.5404 29.6182C19.1586 29.7292 18.7524 29.822 18.3281 29.8986C18.3361 30.0801 18.3402 30.2637 18.3402 30.4473C18.3402 32.7892 17.7199 34.9597 16.6652 36.7388H20.2678H20.3405V36.1479H20.3406Z" fill="#E9AB00"/>
<path fill-rule="evenodd" clip-rule="evenodd" d="M30.6252 35.9018L30.1483 29.1765C29.92 25.9571 27.0791 24.3009 24.0442 23.2621L22.452 24.9828C25.1636 26.0378 27.5417 27.3288 27.7398 30.2578L28.1742 36.741H29.8007C30.4979 36.741 30.6736 36.5715 30.6252 35.9018V35.9018Z" fill="#2E8FF3"/>
<path fill-rule="evenodd" clip-rule="evenodd" d="M23.6137 6.66465C22.2842 0.726082 14.0081 0.128966 11.3733 3.17489C14.4789 2.11387 19.1282 3.03769 20.8961 6.54161C21.7972 6.7151 22.7692 6.76349 23.6137 6.66465Z" fill="black"/>
<path fill-rule="evenodd" clip-rule="evenodd" d="M23.6824 11.0662C25.6788 10.2896 26.4264 8.41355 26.6021 6.25116C26.6547 5.59762 26.6709 5.49273 26.1253 5.80939C25.7778 6.01114 25.4484 6.17246 25.123 6.29955C23.7309 10.9714 16.4752 9.42219 11.6016 8.80693C11.7046 8.84322 11.8056 8.88962 11.9047 8.94811C14.6586 10.5357 18.4047 11.163 21.5911 11.161C22.3247 11.161 23.0278 11.1286 23.6824 11.0662Z" fill="black"/>
<path d="M10.7951 13.6564C10.5832 13.8616 10.578 14.1995 10.7835 14.4111C10.8884 14.519 11.0277 14.5732 11.1673 14.5732C11.3014 14.5732 11.4356 14.5231 11.5395 14.4226C11.8026 14.1677 12.231 14.1677 12.4944 14.4226C12.7063 14.6278 13.0449 14.6227 13.2503 14.411C13.4559 14.1994 13.4507 13.8615 13.2387 13.6563C12.5651 13.0041 11.4688 13.0041 10.7951 13.6564V13.6564Z" fill="black"/>
<path d="M18.5039 14.5732C18.638 14.5732 18.7722 14.5232 18.8761 14.4226C19.1388 14.1682 19.5676 14.1687 19.8317 14.4234C20.0442 14.6282 20.3827 14.6223 20.5877 14.4103C20.7928 14.1983 20.7868 13.8603 20.5744 13.6556C19.8996 13.005 18.8039 13.0055 18.1315 13.6564C17.9195 13.8616 17.9144 14.1995 18.12 14.411C18.2248 14.519 18.3643 14.5732 18.5039 14.5732V14.5732Z" fill="black"/>
<path d="M15.6853 17.8684C15.3632 17.8684 15.0606 17.7431 14.8334 17.5154C14.6249 17.3066 14.2864 17.3062 14.0773 17.5143C13.8682 17.7224 13.8677 18.0603 14.0762 18.2691C14.5056 18.6991 15.077 18.9358 15.6853 18.9358C16.2936 18.9358 16.865 18.699 17.2944 18.269C17.5029 18.0603 17.5023 17.7224 17.2931 17.5143C17.084 17.3061 16.7456 17.3066 16.5371 17.5155C16.3098 17.7431 16.0073 17.8684 15.6853 17.8684Z" fill="black"/>
<path d="M31.1583 35.8642L30.6815 29.1368C30.5667 27.5188 29.8308 26.125 28.4943 24.9942C27.552 24.1969 26.3031 23.518 24.6893 22.9253L25.1765 21.1281C25.3303 20.5601 25.2345 19.9944 24.9137 19.576C24.6051 19.1738 24.1241 18.9522 23.5592 18.9522H21.7894C22.6957 17.9516 23.415 16.794 23.8313 15.6003C25.2673 15.4559 26.6073 14.5883 26.6073 13.0673V12.2988C26.6073 11.5119 26.0937 10.8437 25.3866 10.6161C26.3919 9.66339 26.9786 8.2176 27.1349 6.29397L27.1372 6.26579C27.1753 5.79292 27.2054 5.41946 26.8544 5.19879C26.499 4.97513 26.1276 5.19068 25.8568 5.34795C25.2101 5.72283 24.6363 5.94827 24.0103 6.06718C23.5534 4.52923 22.6069 3.24143 21.2516 2.32166C19.9663 1.44937 18.3236 0.926827 16.6264 0.850044C15.1956 0.785216 13.7904 1.04254 12.6681 1.57397C11.565 2.09637 10.7755 2.85025 10.3619 3.76973C9.56394 3.77485 8.89511 4.01958 8.36941 4.49977C7.32713 5.45184 7.17152 7.06479 7.17152 7.9415V10.5324H6.53419C5.56647 10.5324 4.77917 11.3247 4.77917 12.2986V13.0672C4.77917 14.5881 6.11898 15.4556 7.55487 15.6001C7.96503 16.7659 8.68832 17.9362 9.60457 18.9522H7.82931C7.26326 18.9522 6.78147 19.1739 6.47267 19.5765C6.15198 19.9947 6.05625 20.5601 6.21014 21.1286L6.69864 22.9247C4.32931 23.7955 2.7058 24.8781 1.74435 26.2264C1.57313 26.4666 1.6293 26.7998 1.86981 26.9707C1.96383 27.0375 2.0721 27.0697 2.17938 27.0697C2.34647 27.0697 2.51106 26.9917 2.61534 26.8455C3.46423 25.655 4.963 24.684 7.19005 23.8822L10.5113 27.473V36.2059L6.67269 36.2065V33.3076C6.67269 33.0129 6.43333 32.7739 6.13808 32.7739C5.84283 32.7739 5.60347 33.0129 5.60347 33.3076V36.2066L1.58782 36.2072C1.43 36.2072 1.2858 36.0679 1.29471 35.9394L1.77151 29.2121C1.79232 28.918 1.5705 28.6629 1.27596 28.642C0.981923 28.6216 0.725809 28.8427 0.704923 29.1367L0.228049 35.8648C0.203243 36.2223 0.215717 36.6283 0.496353 36.9285C0.781408 37.2335 1.20803 37.2745 1.58782 37.2745L6.12511 37.2739C6.12945 37.274 6.13366 37.2745 6.13801 37.2745C6.14236 37.2745 6.14663 37.274 6.15098 37.2739L15.6931 37.2725L25.2353 37.2739C25.2397 37.274 25.2439 37.2745 25.2483 37.2745C25.2527 37.2745 25.2569 37.274 25.2612 37.2739L29.8006 37.2745C30.1804 37.2745 30.607 37.2333 30.892 36.9275C31.1727 36.6263 31.1842 36.2206 31.1583 35.8642V35.8642ZM5.84839 13.0673V12.2987C5.84839 11.9199 6.16246 11.5999 6.53419 11.5999H7.17152V13.505C7.17152 13.8283 7.20217 14.1533 7.25727 14.472C6.48415 14.2905 5.84839 13.8137 5.84839 13.0673V13.0673ZM25.5382 12.2986V13.0672C25.5382 13.8135 24.9029 14.2901 24.1301 14.4717C24.1858 14.1533 24.2171 13.8283 24.2171 13.5049V11.5998H24.8543C25.2251 11.5999 25.5382 11.9199 25.5382 12.2986V12.2986ZM8.46321 14.937C8.31559 14.4388 8.24067 13.957 8.24067 13.5049V11.2211C9.13297 9.85304 10.6149 8.81992 11.637 9.40999C12.5397 9.9316 13.5889 10.3761 14.7553 10.7314C15.0379 10.8173 15.3365 10.6585 15.4227 10.3766C15.5088 10.0947 15.3497 9.79646 15.0673 9.71043C13.9788 9.37889 13.0048 8.96701 12.1724 8.4861C10.9064 7.75513 9.39394 8.39081 8.24067 9.53665V7.9415C8.24067 7.37705 8.32357 5.98847 9.09113 5.28732C9.47898 4.933 9.99712 4.79004 10.6754 4.85031C10.9246 4.87223 11.1554 4.71938 11.2318 4.4817C11.7554 2.8526 13.9544 1.7987 16.5779 1.91633C18.9512 2.02371 21.9365 3.21367 22.9246 6.17812C21.3021 6.22103 19.4454 5.76011 18.6992 5.08501C18.4805 4.88711 18.1423 4.90369 17.944 5.12208C17.7458 5.34048 17.7624 5.67799 17.9812 5.87597C18.9965 6.79452 20.9959 7.24881 22.7009 7.24881C23.0386 7.24881 23.365 7.23088 23.6696 7.1953C23.6701 7.19523 23.6706 7.1953 23.6711 7.19523C23.6724 7.19509 23.6735 7.19494 23.6747 7.1948C23.6753 7.19473 23.6758 7.19473 23.6763 7.19466C23.6766 7.19466 23.6767 7.19459 23.6769 7.19459C24.5235 7.10265 25.2511 6.87998 26.0455 6.46333C25.8199 8.60956 25.0052 9.94533 23.5604 10.54C23.5529 10.5412 23.5452 10.542 23.5378 10.5434C21.5782 10.7209 19.3948 10.621 17.3775 10.2604C17.0873 10.2088 16.8091 10.4016 16.7571 10.6917C16.7051 10.9819 16.8985 11.2593 17.1892 11.3112C18.6162 11.5662 20.1235 11.6965 21.5851 11.6965C22.1141 11.6965 22.6368 11.6788 23.1479 11.6444V13.505C23.1479 13.5609 23.1467 13.6174 23.1443 13.6744C23.1278 14.0733 23.0537 14.4972 22.9232 14.9375C22.2052 17.3683 19.9277 19.7817 17.5073 20.6761C16.8305 20.9272 16.254 21.0441 15.6932 21.0441C15.1324 21.0441 14.5559 20.9272 13.8778 20.6756C13.2732 20.4531 12.6696 20.1347 12.0841 19.7293C10.3753 18.5456 8.98792 16.7093 8.46321 14.937V14.937ZM11.2893 24.1908L10.7735 26.1837L7.82603 22.9962L7.24223 20.8495C7.17601 20.605 7.20502 20.3776 7.32171 20.2254C7.45215 20.0553 7.66978 20.0196 7.82938 20.0196H10.7087C10.8977 20.1785 11.0914 20.3305 11.2894 20.4744V24.1908H11.2893ZM19.8059 36.2058L15.6932 36.2053L11.5806 36.2058V30.0598C12.8132 30.4465 14.2633 30.6563 15.7498 30.6563C17.1895 30.6563 18.6002 30.4588 19.8058 30.0948V36.2058H19.8059ZM19.8059 28.9738C18.6392 29.3713 17.2156 29.5889 15.7498 29.5889C14.235 29.5889 12.7712 29.3574 11.5806 28.9345V27.3321L11.9725 25.8183L12.6544 25.7969C12.9711 25.7978 13.0502 25.8503 13.3071 26.4508L13.5415 26.9934C13.6286 27.1952 13.8257 27.3159 14.0327 27.3159C14.1033 27.3159 14.1752 27.3018 14.2441 27.2722C14.5152 27.1555 14.6403 26.8414 14.5233 26.5707L14.2896 26.0297C14.0548 25.4809 13.7333 24.7293 12.6463 24.7293C12.6407 24.7293 12.6351 24.7294 12.6295 24.7296L12.2511 24.7415L12.3416 24.392C12.3528 24.3484 12.3585 24.3035 12.3585 24.2585V21.1513C12.7377 21.3583 13.1215 21.5348 13.5067 21.6766C14.3066 21.9732 15.0014 22.1114 15.6932 22.1114C16.3852 22.1114 17.0799 21.9733 17.8792 21.6768C18.2694 21.5326 18.6542 21.3549 19.0301 21.1496V24.2585C19.0301 24.3034 19.0358 24.3482 19.047 24.3918L19.1341 24.7294H18.8636C17.7809 24.7294 17.4572 25.4802 17.2202 26.0296L16.9879 26.5722C16.8718 26.8433 16.9978 27.1569 17.2693 27.2728C17.3378 27.302 17.4091 27.3158 17.4791 27.3158C17.6868 27.3158 17.8842 27.1944 17.971 26.9918L18.2028 26.4504C18.4637 25.8452 18.5419 25.7968 18.8635 25.7968H19.4096L19.8059 27.3317V28.9738ZM20.3501 25.1626C20.3458 25.1404 20.3402 25.1186 20.3332 25.0974L20.0992 24.191V20.4718C20.2972 20.3282 20.4915 20.1777 20.6805 20.0197H23.5592C23.718 20.0197 23.9346 20.0553 24.0647 20.225C24.1815 20.3773 24.2105 20.605 24.1444 20.8494L23.5624 22.9963L20.6135 26.1832L20.3501 25.1626ZM29.8007 36.2073L25.783 36.2067V33.3077C25.783 33.013 25.5437 32.774 25.2484 32.774C24.9531 32.774 24.7138 33.013 24.7138 33.3077V36.2065L20.8751 36.206V27.473L24.1982 23.8821C27.7234 25.1525 29.4474 26.8516 29.6149 29.2122L30.0918 35.9403C30.1011 36.0683 29.9576 36.2073 29.8007 36.2073V36.2073Z" fill="black"/>
<path d="M18.5321 7.70601C16.122 7.42179 13.8105 6.01742 12.9389 5.11097C12.7345 4.89835 12.3961 4.89151 12.1831 5.09553C11.9701 5.29969 11.9632 5.6375 12.1676 5.85013C13.3138 7.04214 15.89 8.46921 18.4066 8.76602C18.4279 8.76851 18.4491 8.76972 18.4701 8.76972C18.7372 8.76972 18.9682 8.57004 19.0002 8.29856C19.035 8.00588 18.8253 7.74059 18.5321 7.70601V7.70601Z" fill="black"/>
</svg>
