<svg id="_x33_0" enable-background="new 0 0 62 62" height="512" viewBox="0 0 62 62" width="512" xmlns="http://www.w3.org/2000/svg"><g><g><g><path d="m61 51v10h-8v-10h4z" fill="#ff826e"/></g><g><path d="m43 53h6v8h-6z" fill="#ff826e"/></g><g><path d="m33 57h6v4h-6z" fill="#ff826e"/></g><g><path d="m61 17v14c0 1.1-.9 2-2 2h-2-2c0-1.83-.5-3.55-1.36-5.02h.01c2.01-1.23 3.35-3.45 3.35-5.98v-7h2c1.1 0 2 .9 2 2z" fill="#e6e9ed"/></g><g><path d="m42 9h-1c-2.21 0-4 1.79-4 4v6c0 2.27 1.26 4.24 3.12 5.27-1.56.88-2.87 2.16-3.76 3.71h-.01c-2.01-1.23-3.35-3.45-3.35-5.98v-7-4c0-5.52 4.48-10 10-10h4c5.52 0 10 4.48 10 10v4 7c0 2.53-1.34 4.75-3.35 5.98h-.01c-.89-1.55-2.2-2.83-3.76-3.71 1.86-1.03 3.12-3 3.12-5.27v-6c0-1.1-.9-2-2-2h-5c-1.63 0-3.09-.79-4-2z" fill="#656d78"/></g><g><path d="m48.16 29c.55-1.24.84-2.6.84-4v-.34c.31-.11.6-.24.88-.39 1.56.88 2.87 2.16 3.76 3.71.86 1.47 1.36 3.19 1.36 5.02h-2v2.59c0 .78-.63 1.41-1.41 1.41-.38 0-.74-.15-1-.41l-3.59-3.59h-2c1.4-1.05 2.48-2.43 3.16-4z" fill="#ff826e"/></g><g><path d="m53 13v6c0 2.27-1.26 4.24-3.12 5.27-.28.15-.57.28-.88.39-.63.22-1.3.34-2 .34h-4c-.7 0-1.37-.12-2-.34-.31-.11-.6-.24-.88-.39-1.86-1.03-3.12-3-3.12-5.27v-6c0-2.21 1.79-4 4-4h1c.91 1.21 2.37 2 4 2h5c1.1 0 2 .9 2 2z" fill="#f0d0b4"/></g><g><path d="m49 24.66v.34c0 1.4-.29 2.76-.84 4h-6.32c-.55-1.24-.84-2.6-.84-4v-.34c.63.22 1.3.34 2 .34h4c.7 0 1.37-.12 2-.34z" fill="#f0d0b4"/></g><g><path d="m48.16 29c-.68 1.57-1.76 2.95-3.16 4-1.4-1.05-2.48-2.43-3.16-4z" fill="#b4dd7f"/></g><g><path d="m41.84 29c.68 1.57 1.76 2.95 3.16 4h-10c0-1.83.5-3.55 1.36-5.02.89-1.55 2.2-2.83 3.76-3.71.28.15.57.28.88.39v.34c0 1.4.29 2.76.84 4z" fill="#ff826e"/></g><g><path d="m36.35 27.98h.01c-.86 1.47-1.36 3.19-1.36 5.02h-2.54c-.35-.61-.85-1.11-1.46-1.46v-2.54c0-3.27-1.57-6.17-4-8v-4c0-1.1.9-2 2-2h4v7c0 2.53 1.34 4.75 3.35 5.98z" fill="#e6e9ed"/></g><g><path d="m32.46 33c.34.59.54 1.27.54 2 0 1.1-.45 2.1-1.17 2.83-.73.72-1.73 1.17-2.83 1.17h-2v-8h2c.73 0 1.41.2 2 .54.61.35 1.11.85 1.46 1.46z" fill="#aab2bd"/></g><g><path d="m10.76 26.31-3.76 4.69h-2c-.44 0-.86.07-1.26.21l-.56-1.68c-.12-.35-.18-.72-.18-1.09 0-.92.37-1.81 1.02-2.46l.98-.98-1.61-2.42c-.26-.38-.39-.82-.39-1.28 0-1.27 1.03-2.3 2.3-2.3h15.7c2.25 0 4.33.75 6 2 2.43 1.83 4 4.73 4 8v2.54c-.59-.34-1.27-.54-2-.54h-2c0-2.21-1.79-4-4-4h-10c-.83 0-1.6-.26-2.24-.69z" fill="#b27946"/></g><g><path d="m29 59v2h-9l-2-6 1-2 2 2 2-6c.18 0 .36-.02.53-.07 3.29 2.14 5.47 5.85 5.47 10.07z" fill="#b4dd7f"/></g><g><path d="m27 31v8c0 2.53-1.18 4.79-3.02 6.26-.29-.17-.62-.26-.98-.26h-2c-.55 0-1.05.22-1.41.59-.37.36-.59.86-.59 1.41h-2-2c-4.42 0-8-3.58-8-8v-8l3.76-4.69c.64.43 1.41.69 2.24.69h10c2.21 0 4 1.79 4 4z" fill="#f0d0b4"/></g><g><path d="m23.98 45.26c.61.34 1.02 1 1.02 1.74 0 .55-.22 1.05-.59 1.41-.24.25-.54.43-.88.52-.17.05-.35.07-.53.07h-2c-.36 0-.7-.09-.99-.26-.56-.32-.94-.9-1-1.57-.01-.05-.01-.11-.01-.17 0-.55.22-1.05.59-1.41.36-.37.86-.59 1.41-.59h2c.36 0 .69.09.98.26z" fill="#aab2bd"/></g><g><path d="m23 49-2 6-2-2-2-2 3.01-2.26c.29.17.63.26.99.26z" fill="#a0d468"/></g><g><circle cx="21" cy="33" fill="#d3a06c" r="2"/></g><g><path d="m13 39h8c0 1.1-.45 2.1-1.17 2.83-.73.72-1.73 1.17-2.83 1.17-2.21 0-4-1.79-4-4z" fill="#ff826e"/></g><g><path d="m20.01 48.74-3.01 2.26-4.28-3.21c1.33-.51 2.77-.79 4.28-.79.68 0 1.35.06 2.01.17.06.67.44 1.25 1 1.57z" fill="#f0d0b4"/></g><g><path d="m18 55 2 6h-6l2-6z" fill="#e6e9ed"/></g><g><path d="m19 53-1 2h-2l-1-2 2-2z" fill="#ccd1d9"/></g><g><path d="m17 51-2 2-2 2-2.11-6.33c.58-.35 1.19-.64 1.83-.88z" fill="#a0d468"/></g><g><path d="m15 53 1 2-2 6h-9v-2c0-4.4 2.37-8.25 5.89-10.33l2.11 6.33z" fill="#b4dd7f"/></g><g><circle cx="13" cy="33" fill="#d3a06c" r="2"/></g><g><path d="m7 31v8h-2c-2.21 0-4-1.79-4-4 0-1.1.45-2.1 1.17-2.83.44-.43.97-.77 1.57-.96.4-.14.82-.21 1.26-.21z" fill="#aab2bd"/></g></g><g><path d="m16 33c0-1.654-1.346-3-3-3s-3 1.346-3 3 1.346 3 3 3 3-1.346 3-3zm-4 0c0-.551.449-1 1-1s1 .449 1 1-.449 1-1 1-1-.449-1-1z"/><path d="m21 36c1.654 0 3-1.346 3-3s-1.346-3-3-3-3 1.346-3 3 1.346 3 3 3zm0-4c.551 0 1 .449 1 1s-.449 1-1 1-1-.449-1-1 .449-1 1-1z"/><path d="m22 39v-1h-10v1c0 2.757 2.243 5 5 5s5-2.243 5-5zm-7.829 1h5.657c-.413 1.164-1.525 2-2.829 2s-2.415-.836-2.828-2z"/><circle cx="41" cy="15" r="1"/><circle cx="49" cy="15" r="1"/><path d="m46 20h-4v2h4c2.206 0 4-1.794 4-4h-2c0 1.103-.897 2-2 2z"/><path d="m49.879 37.293c.456.456 1.062.707 1.707.707 1.331 0 2.414-1.083 2.414-2.414v-1.586h5c1.654 0 3-1.346 3-3v-14c0-1.654-1.346-3-3-3h-1v-3c0-6.065-4.935-11-11-11h-4c-6.065 0-11 4.935-11 11v3h-3c-1.654 0-3 1.346-3 3v2.214c-1.502-.77-3.199-1.214-5-1.214h-15.697c-1.822 0-3.303 1.481-3.303 3.303 0 .653.192 1.287.555 1.832l1.159 1.738-.404.404c-.833.832-1.31 1.984-1.31 3.16 0 .481.077.957.229 1.413l.28.84c-1.492.867-2.509 2.464-2.509 4.31 0 2.757 2.243 5 5 5h1.059c.363 3.266 2.479 6.009 5.385 7.265-4.393 2.088-7.444 6.556-7.444 11.735v3h58v-12h-4v-2h2v-3c0-1.654-1.346-3-3-3-.551 0-1-.449-1-1v-1h1c.551 0 1 .449 1 1v1h2v-1c0-1.302-.839-2.402-2-2.816v-2.184h-2v2h-2v3c0 1.654 1.346 3 3 3 .551 0 1 .449 1 1v1h-1c-.551 0-1-.449-1-1v-1h-2v1c0 1.302.839 2.402 2 2.816v2.184h-4v10h-2v-8h-8v8h-2v-4h-8v4h-2v-1c0-3.928-1.756-7.578-4.75-10.036.255-.292.452-.631.579-1.006 4.575-.42 8.171-4.275 8.171-8.958v-4c0-.342-.035-.677-.101-1h12.687zm4.121 14.707h6v8h-6zm-13.969-26.481c.115 2.38.994 4.661 2.492 6.481h-6.455c.295-2.634 1.747-5.005 3.963-6.481zm4.969 6.173c-.561-.505-1.058-1.071-1.472-1.692h2.944c-.414.621-.911 1.187-1.472 1.692zm2.477-3.692h-4.953c-.237-.666-.394-1.361-.468-2.071.309.042.623.071.944.071h4c.321 0 .635-.029.945-.071-.075.71-.232 1.405-.468 2.071zm-.477-4h-4c-2.757 0-5-2.243-5-5v-6c0-1.654 1.346-3 3-3h.532c1.099 1.227 2.695 2 4.468 2h5c.551 0 1 .449 1 1v6c0 2.757-2.243 5-5 5zm5 8v3.586c0 .338-.469.532-.707.293l-3.842-3.842c1.515-1.826 2.403-4.122 2.519-6.518 2.216 1.476 3.667 3.848 3.963 6.481zm7-16c.551 0 1 .449 1 1v14c0 .551-.449 1-1 1h-3.068c-.119-1.298-.465-2.545-1.012-3.699 1.941-1.509 3.08-3.801 3.08-6.301v-6zm-25-5c0-4.962 4.038-9 9-9h4c4.962 0 9 4.038 9 9v11c0 1.785-.778 3.427-2.109 4.558-.632-.874-1.381-1.666-2.255-2.328 1.446-1.283 2.364-3.149 2.364-5.23v-6c0-1.654-1.346-3-3-3h-5c-2.206 0-4-1.794-4-4h-2c0 .716.126 1.404.357 2.041-2.454.316-4.357 2.42-4.357 4.959v6c0 2.081.918 3.947 2.364 5.23-.874.662-1.623 1.455-2.255 2.328-1.331-1.131-2.109-2.773-2.109-4.558zm-29.873 18.218c-.085-.253-.127-.515-.127-.781 0-.65.264-1.287.723-1.746l1.563-1.563-2.067-3.102c-.143-.215-.219-.465-.219-.723 0-.719.584-1.303 1.303-1.303h15.697c4.962 0 9 4.038 9 9v1.101c-.323-.066-.658-.101-1-.101h-1.101c-.465-2.279-2.484-4-4.899-4h-10c-1.654 0-3-1.346-3-3v-1h-2v1c0 1.329.529 2.531 1.378 3.427l-2.858 3.573h-1.52c-.203 0-.396.036-.593.06zm-2.127 5.782c0-1.654 1.346-3 3-3h1v6h-1c-1.654 0-3-1.346-3-3zm13 11c-3.86 0-7-3.14-7-7v-7.649l3.013-3.767c.61.265 1.281.416 1.987.416h10c1.654 0 3 1.346 3 3v8c0 1.959-.812 3.789-2.232 5.112-.246-.066-.501-.112-.768-.112h-2c-1.302 0-2.402.839-2.816 2zm-2.42 2.935 2.898 2.174-2.041 2.041-1.329-3.987c.156-.079.312-.158.472-.228zm4.42-.935c.404 0 .807.03 1.207.074.076.197.168.385.282.559l-1.489 1.117-2.065-1.549c.67-.128 1.359-.201 2.065-.201zm-.279 8h.558l1.333 4h-3.225zm.661-2h-.764l-.401-.803.783-.783.783.783zm1.14-2.892 1.651-1.239c.265.077.538.131.827.131h.612l-1.049 3.149zm4.478-3.108h-2c-.551 0-1-.449-1-1s.449-1 1-1h2c.551 0 1 .449 1 1s-.449 1-1 1zm-17 11c0-3.571 1.718-6.74 4.362-8.751l2.201 6.602 2.163-2.163.194.389-1.641 4.923h-7.279zm38-5h4v6h-4zm-10 4h4v2h-4zm-6 1v1h-7.279l-1.641-4.923.194-.389 2.163 2.163 2.2-6.598c2.737 2.076 4.363 5.28 4.363 8.747zm-2.2-13.049c-.091-.242-.207-.469-.354-.676 1.401-1.435 2.278-3.28 2.498-5.274h1.056c1.13 0 2.162-.391 3-1.026v.025c0 3.589-2.716 6.552-6.2 6.951zm3.2-7.951h-1v-6h1c1.654 0 3 1.346 3 3s-1.346 3-3 3zm3-6.974v-2.026c0-3.408-1.559-6.459-4-8.479v-3.521c0-.551.449-1 1-1h3v6c0 2.499 1.139 4.792 3.079 6.301-.547 1.154-.893 2.401-1.012 3.699h-1.093c-.279-.369-.605-.695-.974-.974z"/></g></g></svg>