<svg id="Capa_1" enable-background="new 0 0 512.106 512.106" height="512" viewBox="0 0 512.106 512.106" width="512" xmlns="http://www.w3.org/2000/svg"><g><path d="m143.967 299.831 68.332 68.333-34.166 56.943-91.11-91.11z" fill="#365e7d"/><path d="m189.381 406.359-11.25 18.75-91.11-91.11 56.95-34.17 11.25 11.25-21.726 13.036c-8.368 5.021-9.79 16.569-2.889 23.469z" fill="#2b4d66"/><g fill="#f25a74"><path d="m30.089 277.044 22.778 22.777 62.629-28.463 91.154-91.153-85.451 5.729z"/><path d="m235.087 482.041-22.778-22.777 28.463-62.629 91.154-91.154-5.729 85.45z"/><path d="m30.089 277.044 22.778 22.777 62.629-28.463 91.154-91.153-85.451 5.729z"/></g><path d="m206.651 180.209-2.15 2.15-53.3 3.57-91.11 91.11 13.41 13.41-20.63 9.37-22.78-22.78 91.11-91.11z" fill="#e83d5a"/><path d="m235.087 482.041-22.778-22.777 28.463-62.629 91.154-91.154-5.729 85.45z" fill="#f25a74"/><path d="m331.921 305.479-2.15 32.16-59 59-28.46 62.62 7.78 7.78-15 15-22.78-22.78 28.46-62.62z" fill="#e83d5a"/><path d="m504.551 64.579c0 26.03-6.17 51.7-17.97 74.86-7.73 15.16-17.86 29.24-30.27 41.65l-215.55 215.56-125.28-125.28 215.56-215.55c12.28-12.28 26.21-22.34 41.2-30.04 37.95-19.49 82.71-23.8 124.73-10.62 5.1 16.25 7.58 32.9 7.58 49.42z" fill="#eaf6ff"/><path d="m456.791 7.839c-14.59 3-28.75 7.97-42.08 14.81-10 5.14-19.53 11.32-28.41 18.53-4.43 3.58-8.7 7.42-12.79 11.51l-147.22 147.21-22.76 22.76-22.8 22.81-22.76 22.76-.02.01 105.61 105.61-22.8 22.8-125.28-125.28 22.82-22.81 22.76-22.76 45.56-45.57 124.42-124.41c12.28-12.28 26.21-22.34 41.2-30.04 26.01-13.36 55.22-19.59 84.55-17.94z" fill="#d8ecfe"/><path d="m504.551 64.579c0 26.03-6.17 51.7-17.97 74.86l-1.01 1.01-113.89-113.89.56-.78c37.95-19.49 82.71-23.8 124.73-10.62 5.1 16.25 7.58 32.9 7.58 49.42z" fill="#f25a74"/><path d="m456.791 7.839c-14.59 3-28.75 7.97-42.08 14.81-10 5.14-19.53 11.32-28.41 18.53l-14.62-14.62.56-.78c26.01-13.36 55.22-19.59 84.55-17.94z" fill="#e83d5a"/><path d="m304.239 209.518-1.626-1.626c-12.131-12.131-12.131-31.798 0-43.929l47.181-47.181c12.131-12.131 31.798-12.131 43.929 0l1.626 1.626c12.131 12.131 12.131 31.798 0 43.929l-47.181 47.181c-12.131 12.13-31.798 12.13-43.929 0z" fill="#9bd8f9"/><path d="m322.611 163.959c-12.13 12.13-12.13 31.8 0 43.93l1.63 1.63c3.49 3.48 7.6 5.97 11.97 7.45-10.84 3.68-23.32 1.2-31.97-7.45l-1.63-1.63c-12.13-12.13-12.13-31.8 0-43.93l47.18-47.18c8.65-8.65 21.13-11.13 31.97-7.45-4.38 1.48-8.49 3.97-11.97 7.45z" fill="#73c3f9"/><path d="m123.734 283.719h177.167v32.188h-177.167z" fill="#f25a74" transform="matrix(.707 .707 -.707 .707 274.186 -62.318)"/><path d="m143.423 233.105h32.187v27.818h-32.187z" fill="#e83d5a" transform="matrix(.707 -.707 .707 .707 -127.944 185.142)"/><path d="m169.299 238.154h177.167v32.188h-177.167z" fill="#f25a74" transform="matrix(.707 .707 -.707 .707 255.312 -107.883)"/><path d="m188.983 187.535h32.188v27.818h-32.188z" fill="#e83d5a" transform="matrix(.707 -.707 .707 .707 -82.377 204.013)"/><g><path d="m504.128 12.913c-.735-2.342-2.569-4.176-4.911-4.911-61.489-19.289-127.966-3.004-173.482 42.51l-122.403 122.402-82.632 5.531c-1.812.121-3.519.896-4.803 2.18l-30.67 30.67c-2.929 2.93-2.929 7.678 0 10.607 2.93 2.928 7.678 2.928 10.607 0l28.678-28.679 62.707-4.197-76.07 76.067-56.649 25.748-13.802-13.802 32.027-32.026c2.929-2.93 2.929-7.678 0-10.607-2.93-2.928-7.678-2.928-10.607 0l-37.33 37.33c-2.929 2.93-2.929 7.678 0 10.607l22.78 22.78c2.644 2.274 5.446 2.782 8.407 1.524l57.87-26.301 18.007 18.007-48.69 29.214c-4.298 3.442-4.78 7.354-1.445 11.735l34 34c2.93 2.928 7.678 2.928 10.607 0 2.929-2.93 2.929-7.678 0-10.607l-27.208-27.207 43.669-26.201 60.058 60.058-26.201 43.669-27.207-27.208c-2.93-2.928-7.678-2.928-10.607 0-2.929 2.93-2.929 7.678 0 10.607l34 34c3.383 3.383 9.184 2.807 11.735-1.445l29.214-48.69 18.007 18.007-26.302 57.875c-1.293 2.847-.686 6.196 1.524 8.407l22.777 22.777c3.536 2.928 7.072 2.928 10.607 0l91.11-91.109c1.283-1.284 2.058-2.99 2.18-4.802l5.54-82.64 122.398-122.398c45.514-45.514 61.803-111.989 42.51-173.482zm-217.792 327.55-114.669-114.668 12.198-12.197 114.667 114.667zm-125.276-104.062 114.669 114.669-12.154 12.154-114.669-114.669zm148.08 81.258-114.667-114.667 12.154-12.153 114.666 114.666zm-170.841-58.497 114.669 114.669-12.212 12.212-114.67-114.669zm180.603 128.458-83.815 83.814-13.799-13.799 25.75-56.659 76.068-76.068zm12.999-92.721-114.669-114.67 119.111-119.11c10.181-10.181 21.511-18.758 33.642-25.649l40.753 40.752c3.536 2.928 7.072 2.928 10.607 0 2.929-2.93 2.929-7.678 0-10.607l-37.245-37.244c33.127-14.624 70.81-17.529 106.851-7.191 10.34 36.042 7.434 73.725-7.19 106.852l-39.295-39.296c-2.93-2.927-7.678-2.929-10.607 0-2.929 2.93-2.929 7.678 0 10.607l42.803 42.804c-6.892 12.13-15.469 23.461-25.65 33.641z"/><path d="m344.491 111.478-47.181 47.182c-39.427 40.315 20.189 92.135 56.161 56.162l47.181-47.182c39.98-39.98-18.795-93.529-56.161-56.162zm45.554 45.554-47.182 47.183c-21.241 21.241-56.946-12.954-34.947-34.948l47.182-47.183c21.241-21.241 58.938 10.495 34.947 34.948z"/><path d="m93.358 408.165-91.11 91.11c-2.929 2.93-2.929 7.678 0 10.607 3.536 2.928 7.072 2.928 10.607 0l91.11-91.11c2.929-2.93 2.929-7.678 0-10.607-2.929-2.928-7.677-2.928-10.607 0z"/><path d="m12.855 464.328 45.555-45.556c2.929-2.93 2.929-7.678 0-10.607-2.931-2.929-7.679-2.928-10.607 0l-45.555 45.556c-2.929 2.93-3.064 7.82 0 10.607 2.303 2.096 6.678 3.876 10.607 0z"/><path d="m91.757 452.12-45.555 45.555c-2.929 2.93-2.929 7.678 0 10.607 3.536 2.928 7.072 2.928 10.607 0l45.555-45.555c2.929-2.93 2.929-7.678 0-10.607-2.929-2.928-7.677-2.928-10.607 0z"/></g></g></svg>