<svg width="18" height="16" viewBox="0 0 18 16" fill="none" xmlns="http://www.w3.org/2000/svg">
<path d="M13.3537 14.5852L13.0274 14.964C13.1223 15.0457 13.2444 15.0889 13.3696 15.0849L13.3537 14.5852ZM12.1582 12.7489C11.9871 12.5322 11.6727 12.4952 11.4559 12.6664C11.2392 12.8375 11.2022 13.1519 11.3733 13.3686L12.1582 12.7489ZM12.6268 12.2759L12.4529 11.8072C12.4462 11.8096 12.4397 11.8122 12.4332 11.815L12.6268 12.2759ZM10.7352 12.837L10.6512 12.344L10.643 12.3455L10.7352 12.837ZM7.35616 12.824L7.26138 13.3149L7.26441 13.3155L7.35616 12.824ZM5.43836 12.263L5.25613 12.7286L5.25661 12.7288L5.43836 12.263ZM4.48588 11.8194L4.20787 12.235C4.21884 12.2423 4.2301 12.2492 4.24162 12.2557L4.48588 11.8194ZM4.36851 11.7541L4.64608 11.3382C4.62877 11.3267 4.61074 11.3162 4.59212 11.3069L4.36851 11.7541ZM4.31634 11.7151L4.66989 11.3615C4.63705 11.3287 4.59979 11.3005 4.55919 11.278L4.31634 11.7151ZM6.62664 13.3424C6.79771 13.1256 6.76067 12.8112 6.5439 12.6402C6.32714 12.4691 6.01273 12.5061 5.84165 12.7229L6.62664 13.3424ZM4.64626 14.5852L4.63043 15.0849C4.75772 15.0889 4.88176 15.0442 4.97722 14.9599L4.64626 14.5852ZM1.38095 12.1325H0.880951C0.880951 12.1593 0.883097 12.186 0.887368 12.2124L1.38095 12.1325ZM3.2596 2.89377L2.9596 2.49378C2.88304 2.5512 2.82456 2.62939 2.79112 2.71907L3.2596 2.89377ZM6.92559 1.52391L7.42333 1.47651C7.39929 1.22406 7.19007 1.02959 6.93654 1.02403L6.92559 1.52391ZM6.55831 2.94127C6.5845 3.21617 6.82857 3.41779 7.10347 3.39161C7.37837 3.36543 7.57999 3.12135 7.55381 2.84646L6.55831 2.94127ZM10.3957 2.88234C10.3606 3.15623 10.5541 3.40678 10.828 3.44196C11.1019 3.47714 11.3524 3.28362 11.3876 3.00973L10.3957 2.88234ZM11.0743 1.524L11.0633 1.02412C10.8161 1.02955 10.6099 1.21497 10.5784 1.4603L11.0743 1.524ZM14.7403 2.89386L15.2088 2.71915C15.1753 2.62948 15.1169 2.5513 15.0403 2.49387L14.7403 2.89386ZM16.619 12.1325L17.1126 12.2124C17.1169 12.186 17.119 12.1593 17.119 12.1325H16.619ZM7.891 9.47101L7.391 9.46277V9.47101H7.891ZM13.3537 14.5852C13.68 14.2063 13.6801 14.2063 13.6801 14.2063C13.6801 14.2063 13.6801 14.2063 13.68 14.2063C13.68 14.2063 13.68 14.2063 13.6799 14.2062C13.6798 14.2061 13.6797 14.206 13.6794 14.2058C13.6789 14.2053 13.6781 14.2047 13.6771 14.2037C13.6749 14.2019 13.6717 14.1991 13.6675 14.1954C13.6589 14.1881 13.6462 14.177 13.6299 14.1628C13.5971 14.1343 13.5497 14.0928 13.4915 14.0414C13.3749 13.9386 13.2157 13.7966 13.0447 13.6396C12.6917 13.3154 12.325 12.9602 12.1582 12.7489L11.3733 13.3686C11.5979 13.6531 12.0252 14.0611 12.3683 14.3762C12.5455 14.5388 12.7099 14.6854 12.8299 14.7913C12.8899 14.8443 12.939 14.8872 12.9733 14.917C12.9904 14.9319 13.0038 14.9435 13.013 14.9515C13.0175 14.9555 13.0211 14.9585 13.0235 14.9606C13.0247 14.9617 13.0257 14.9625 13.0263 14.9631C13.0267 14.9633 13.0269 14.9636 13.0271 14.9637C13.0272 14.9638 13.0273 14.9639 13.0273 14.9639C13.0274 14.9639 13.0274 14.964 13.0274 14.964C13.0274 14.964 13.0274 14.964 13.3537 14.5852ZM13.8522 11.0887C13.3489 11.4201 12.874 11.6509 12.4529 11.8072L12.8008 12.7447C13.2929 12.5621 13.8356 12.297 14.4022 11.9239L13.8522 11.0887ZM12.4332 11.815C11.8136 12.0753 11.2241 12.2465 10.6512 12.3441L10.8191 13.3299C11.4725 13.2186 12.1355 13.0247 12.8205 12.7369L12.4332 11.815ZM10.643 12.3455C9.46251 12.5669 8.37791 12.5061 7.44792 12.3325L7.26441 13.3155C8.29129 13.5072 9.50281 13.5767 10.8273 13.3284L10.643 12.3455ZM7.45095 12.333C6.74372 12.1965 6.13405 11.9977 5.62011 11.7972L5.25661 12.7288C5.81234 12.9456 6.4812 13.1643 7.26138 13.3149L7.45095 12.333ZM5.62059 11.7974C5.33422 11.6853 5.03036 11.5512 4.73014 11.3831L4.24162 12.2557C4.59387 12.4529 4.94229 12.6058 5.25613 12.7286L5.62059 11.7974ZM4.76389 11.4038C4.71436 11.3707 4.66739 11.3478 4.65094 11.3396C4.62811 11.3282 4.63584 11.3314 4.64608 11.3382L4.09095 12.17C4.14034 12.203 4.18722 12.2258 4.20352 12.2339C4.2262 12.2453 4.21834 12.242 4.20787 12.235L4.76389 11.4038ZM4.59212 11.3069C4.61042 11.3161 4.6302 11.3284 4.64937 11.3437C4.6658 11.3568 4.67729 11.3689 4.66989 11.3615L3.96279 12.0686C3.98696 12.0928 4.04573 12.1517 4.14491 12.2013L4.59212 11.3069ZM4.55919 11.278C4.45066 11.2177 4.3674 11.1671 4.31264 11.1325C4.28527 11.1152 4.26507 11.1019 4.25244 11.0935C4.24613 11.0893 4.24172 11.0863 4.23925 11.0846C4.23802 11.0838 4.23727 11.0833 4.23702 11.0831C4.2369 11.083 4.23689 11.083 4.23702 11.0831C4.23708 11.0831 4.23717 11.0832 4.23729 11.0833C4.23736 11.0833 4.23743 11.0834 4.2375 11.0834C4.23754 11.0835 4.23758 11.0835 4.23762 11.0835C4.23765 11.0835 4.23768 11.0836 4.23769 11.0836C4.23772 11.0836 4.23776 11.0836 3.95104 11.4933C3.66433 11.9029 3.66437 11.9029 3.6644 11.9029C3.66442 11.9029 3.66445 11.903 3.66448 11.903C3.66453 11.903 3.66458 11.9031 3.66463 11.9031C3.66474 11.9032 3.66486 11.9033 3.66499 11.9033C3.66524 11.9035 3.66552 11.9037 3.66584 11.9039C3.66647 11.9044 3.66722 11.9049 3.66811 11.9055C3.66989 11.9067 3.67217 11.9083 3.67497 11.9102C3.68055 11.914 3.68817 11.9192 3.69776 11.9256C3.71693 11.9384 3.74403 11.9561 3.77864 11.978C3.84781 12.0217 3.9472 12.0819 4.07349 12.1521L4.55919 11.278ZM5.84165 12.7229C5.67314 12.9364 5.30439 13.2994 4.95157 13.63C4.78039 13.7904 4.62096 13.9358 4.50425 14.0412C4.44595 14.0938 4.39845 14.1364 4.36564 14.1656C4.34923 14.1803 4.33651 14.1916 4.32796 14.1992C4.32368 14.203 4.32044 14.2058 4.31831 14.2077C4.31725 14.2086 4.31646 14.2093 4.31595 14.2098C4.3157 14.21 4.31552 14.2102 4.31541 14.2103C4.31535 14.2103 4.31532 14.2104 4.3153 14.2104C4.31529 14.2104 4.31529 14.2104 4.31528 14.2104C4.31528 14.2104 4.31529 14.2104 4.64626 14.5852C4.97722 14.9599 4.97724 14.9599 4.97726 14.9599C4.97727 14.9599 4.9773 14.9599 4.97733 14.9599C4.97738 14.9598 4.97745 14.9597 4.97754 14.9597C4.97772 14.9595 4.97797 14.9593 4.9783 14.959C4.97895 14.9584 4.97988 14.9576 4.98109 14.9565C4.98351 14.9544 4.98704 14.9513 4.99162 14.9472C5.00079 14.9391 5.01415 14.9272 5.03123 14.9119C5.06539 14.8815 5.11442 14.8376 5.17442 14.7834C5.29429 14.6752 5.45846 14.5254 5.63533 14.3597C5.97861 14.038 6.40381 13.6247 6.62664 13.3424L5.84165 12.7229ZM4.66209 14.0854C3.37929 14.0448 2.70057 13.5106 2.3309 13.0226C2.1398 12.7704 2.02362 12.5195 1.95569 12.3323C1.9219 12.2392 1.90064 12.1635 1.88826 12.1137C1.88208 12.0888 1.87816 12.0705 1.87603 12.06C1.87496 12.0547 1.87434 12.0513 1.87411 12.0501C1.874 12.0494 1.87398 12.0493 1.87405 12.0498C1.87409 12.05 1.87415 12.0503 1.87423 12.0508C1.87427 12.051 1.87431 12.0513 1.87436 12.0516C1.87439 12.0518 1.87443 12.052 1.87445 12.0521C1.87449 12.0524 1.87453 12.0527 1.38095 12.1325C0.887368 12.2124 0.887416 12.2127 0.887465 12.213C0.887484 12.2131 0.887535 12.2134 0.887572 12.2136C0.887647 12.2141 0.887728 12.2146 0.887816 12.2151C0.887992 12.2162 0.888195 12.2174 0.888426 12.2187C0.888889 12.2214 0.889464 12.2247 0.89016 12.2285C0.891552 12.2362 0.89343 12.2461 0.895864 12.2582C0.90073 12.2822 0.907832 12.3148 0.917732 12.3547C0.937504 12.4343 0.968612 12.5438 1.01569 12.6735C1.10949 12.9319 1.26901 13.277 1.53383 13.6265C2.07598 14.3421 3.02992 15.0342 4.63043 15.0849L4.66209 14.0854ZM1.88095 12.1325C1.88095 10.0956 2.33817 7.83435 2.80381 6.06506C3.03565 5.18414 3.26753 4.43274 3.44124 3.90215C3.52807 3.63697 3.60026 3.42726 3.65052 3.28444C3.67565 3.21304 3.69529 3.15839 3.70853 3.12191C3.71514 3.10367 3.72016 3.08998 3.72346 3.08102C3.72511 3.07653 3.72633 3.07323 3.7271 3.07113C3.72749 3.07008 3.72777 3.06934 3.72794 3.06889C3.72802 3.06867 3.72807 3.06853 3.7281 3.06846C3.72811 3.06842 3.72811 3.06843 3.72812 3.06841C3.72811 3.06843 3.72809 3.06848 3.2596 2.89377C2.79112 2.71907 2.79109 2.71915 2.79105 2.71925C2.79103 2.71931 2.79098 2.71943 2.79094 2.71955C2.79085 2.71979 2.79073 2.7201 2.79059 2.72049C2.7903 2.72127 2.7899 2.72236 2.78938 2.72375C2.78835 2.72653 2.78688 2.73051 2.78497 2.73569C2.78116 2.74605 2.77563 2.76116 2.76849 2.78084C2.7542 2.82021 2.73348 2.8779 2.70724 2.95246C2.65476 3.10156 2.58019 3.31824 2.49089 3.591C2.31235 4.13629 2.07457 4.9069 1.83674 5.81055C1.36306 7.61041 0.880951 9.96852 0.880951 12.1325H1.88095ZM3.55961 3.29377C4.43539 2.63693 5.28705 2.31959 5.91562 2.16621C6.22996 2.0895 6.48773 2.05402 6.66334 2.03765C6.75108 2.02948 6.81808 2.0261 6.86111 2.02473C6.88262 2.02404 6.8981 2.02385 6.90717 2.02381C6.9117 2.02379 6.91462 2.02381 6.91588 2.02382C6.91651 2.02383 6.91673 2.02383 6.91652 2.02383C6.91642 2.02383 6.91621 2.02382 6.9159 2.02382C6.91574 2.02382 6.91556 2.02381 6.91535 2.02381C6.91524 2.02381 6.91506 2.0238 6.91501 2.0238C6.91483 2.0238 6.91464 2.02379 6.92559 1.52391C6.93654 1.02403 6.93633 1.02403 6.93612 1.02402C6.93604 1.02402 6.93582 1.02402 6.93566 1.02401C6.93534 1.02401 6.93499 1.024 6.93462 1.02399C6.93387 1.02398 6.93301 1.02396 6.93204 1.02395C6.9301 1.02392 6.92773 1.02389 6.92492 1.02386C6.9193 1.02381 6.91196 1.02378 6.90294 1.02382C6.88491 1.0239 6.86016 1.02424 6.82912 1.02524C6.76707 1.02722 6.67976 1.0318 6.57058 1.04197C6.35236 1.0623 6.04588 1.10508 5.67856 1.19472C4.94381 1.37401 3.96248 1.74161 2.9596 2.49378L3.55961 3.29377ZM6.42784 1.57132L6.55831 2.94127L7.55381 2.84646L7.42333 1.47651L6.42784 1.57132ZM11.3876 3.00973L11.5702 1.5877L10.5784 1.4603L10.3957 2.88234L11.3876 3.00973ZM11.0743 1.524C11.0853 2.02388 11.0851 2.02389 11.0849 2.02389C11.0849 2.02389 11.0847 2.02389 11.0846 2.0239C11.0844 2.0239 11.0842 2.0239 11.084 2.02391C11.0837 2.02391 11.0835 2.02392 11.0834 2.02392C11.0832 2.02392 11.0834 2.02392 11.084 2.02391C11.0853 2.0239 11.0882 2.02388 11.0928 2.0239C11.1018 2.02394 11.1173 2.02413 11.1388 2.02481C11.1818 2.02619 11.2488 2.02956 11.3366 2.03773C11.5122 2.05409 11.77 2.08957 12.0843 2.16627C12.7129 2.31964 13.5645 2.63697 14.4403 3.29385L15.0403 2.49387C14.0374 1.74166 13.0561 1.37405 12.3213 1.19477C11.954 1.10514 11.6475 1.06236 11.4293 1.04204C11.3201 1.03187 11.2328 1.02731 11.1708 1.02532C11.1397 1.02433 11.115 1.02398 11.0969 1.02391C11.0879 1.02387 11.0806 1.0239 11.075 1.02395C11.0722 1.02398 11.0698 1.02401 11.0678 1.02404C11.0669 1.02405 11.066 1.02407 11.0653 1.02408C11.0649 1.02409 11.0645 1.0241 11.0642 1.0241C11.0641 1.02411 11.0638 1.02411 11.0638 1.02411C11.0635 1.02412 11.0633 1.02412 11.0743 1.524ZM14.7403 2.89386C14.2718 3.06858 14.2718 3.06853 14.2718 3.06851C14.2718 3.06853 14.2718 3.06852 14.2718 3.06856C14.2718 3.06862 14.2719 3.06877 14.272 3.06899C14.2721 3.06944 14.2724 3.07018 14.2728 3.07123C14.2736 3.07333 14.2748 3.07663 14.2765 3.08111C14.2798 3.09008 14.2848 3.10377 14.2914 3.12201C14.3046 3.15848 14.3243 3.21314 14.3494 3.28454C14.3997 3.42735 14.4719 3.63706 14.5587 3.90224C14.7324 4.43281 14.9643 5.1842 15.1961 6.06512C15.6618 7.83438 16.119 10.0956 16.119 12.1325H17.119C17.119 9.96852 16.6369 7.61043 16.1632 5.81059C15.9254 4.90695 15.6876 4.13634 15.509 3.59106C15.4197 3.31831 15.3451 3.10163 15.2927 2.95253C15.2664 2.87797 15.2457 2.82029 15.2314 2.78092C15.2243 2.76123 15.2187 2.74612 15.2149 2.73577C15.213 2.73059 15.2115 2.7266 15.2105 2.72383C15.21 2.72244 15.2096 2.72135 15.2093 2.72057C15.2092 2.72018 15.209 2.71987 15.209 2.71963C15.2089 2.71951 15.2089 2.71939 15.2088 2.71933C15.2088 2.71923 15.2088 2.71915 14.7403 2.89386ZM16.619 12.1325C16.1255 12.0527 16.1255 12.0524 16.1256 12.0521C16.1256 12.052 16.1256 12.0518 16.1256 12.0516C16.1257 12.0513 16.1257 12.051 16.1258 12.0508C16.1259 12.0503 16.1259 12.05 16.1259 12.0497C16.126 12.0493 16.126 12.0494 16.1259 12.0501C16.1257 12.0513 16.125 12.0547 16.124 12.0599C16.1218 12.0705 16.1179 12.0888 16.1117 12.1137C16.0994 12.1635 16.0781 12.2392 16.0443 12.3323C15.9764 12.5195 15.8602 12.7704 15.6691 13.0226C15.2994 13.5106 14.6207 14.0448 13.3379 14.0854L13.3696 15.0849C14.97 15.0342 15.924 14.3421 16.4661 13.6265C16.7309 13.277 16.8905 12.9319 16.9843 12.6735C17.0314 12.5438 17.0625 12.4343 17.0823 12.3547C17.0922 12.3148 17.0993 12.2822 17.1041 12.2582C17.1066 12.2461 17.1084 12.2362 17.1098 12.2285C17.1105 12.2247 17.1111 12.2214 17.1116 12.2187C17.1118 12.2174 17.112 12.2162 17.1122 12.2151C17.1123 12.2146 17.1123 12.2141 17.1124 12.2136C17.1125 12.2134 17.1125 12.2131 17.1125 12.213C17.1126 12.2127 17.1126 12.2124 16.619 12.1325ZM6.56029 7.52294C5.49867 7.52294 4.72967 8.44289 4.72967 9.47101H5.72967C5.72967 8.90756 6.13468 8.52294 6.56029 8.52294V7.52294ZM4.72967 9.47101C4.72967 10.5025 5.51471 11.4192 6.56029 11.4192V10.4192C6.14469 10.4192 5.72967 10.0313 5.72967 9.47101H4.72967ZM6.56029 11.4192C7.622 11.4192 8.391 10.4992 8.391 9.47101H7.391C7.391 10.0345 6.98599 10.4192 6.56029 10.4192V11.4192ZM8.39093 9.47925C8.4081 8.43676 7.61483 7.52294 6.56029 7.52294V8.52294C6.99297 8.52294 7.40011 8.91369 7.39107 9.46277L8.39093 9.47925ZM11.3223 7.52294C10.2606 7.52294 9.49145 8.44282 9.49145 9.47101H10.4915C10.4915 8.90763 10.8965 8.52294 11.3223 8.52294V7.52294ZM9.49145 9.47101C9.49145 10.5026 10.2768 11.4192 11.3223 11.4192V10.4192C10.9066 10.4192 10.4915 10.0312 10.4915 9.47101H9.49145ZM11.3223 11.4192C12.3839 11.4192 13.1529 10.4992 13.1529 9.47101H12.1529C12.1529 10.0346 11.7478 10.4192 11.3223 10.4192V11.4192ZM13.1529 9.47101C13.1529 8.44289 12.3839 7.52294 11.3223 7.52294V8.52294C11.7479 8.52294 12.1529 8.90756 12.1529 9.47101H13.1529ZM4.88565 4.68396C6.45996 3.82538 7.74655 3.42229 9.00253 3.42166C10.2582 3.42104 11.5429 3.82269 13.1134 4.68346L13.5941 3.80654C11.9403 2.90015 10.4864 2.42093 9.00203 2.42166C7.51792 2.4224 6.0629 2.90288 4.40686 3.80604L4.88565 4.68396Z" fill="white"/>
</svg>
