<svg width="16" height="19" viewBox="0 0 16 19" fill="none" xmlns="http://www.w3.org/2000/svg">
<path d="M5.88126 15.0427C6.14155 14.9505 6.27778 14.6647 6.18555 14.4044C6.09332 14.1441 5.80755 14.0079 5.54726 14.1001L5.88126 15.0427ZM1.98923 11.6919L1.50971 11.5503L1.22644 12.5093L1.70596 12.6509L1.98923 11.6919ZM9.78568 17.5714V18.0714H10.7857V17.5714H9.78568ZM9.90473 11.5714L9.8447 11.075C9.65971 11.0974 9.50251 11.2208 9.43682 11.3952C9.37114 11.5696 9.40787 11.766 9.53213 11.9049L9.90473 11.5714ZM13.3333 7.095H13.8333L13.8333 7.09357L13.3333 7.095ZM12.4446 4.6875L11.972 4.52434C11.9131 4.69496 11.9507 4.88407 12.0705 5.01915L12.4446 4.6875ZM12.3913 2.26725L12.856 2.08277C12.8009 1.9439 12.6866 1.83696 12.5443 1.79123L12.3913 2.26725ZM10.074 3.2175L9.93327 3.6973C10.082 3.7409 10.2425 3.71309 10.3679 3.62199L10.074 3.2175ZM5.92597 3.2175L5.63212 3.62204C5.75749 3.7131 5.91798 3.7409 6.06666 3.6973L5.92597 3.2175ZM3.60863 2.26725L3.4555 1.79128C3.31331 1.83702 3.19902 1.94394 3.14391 2.08277L3.60863 2.26725ZM3.5553 4.6875L3.92945 5.01918C4.04919 4.8841 4.08683 4.69497 4.02793 4.52434L3.5553 4.6875ZM2.66663 7.1145H3.16663L3.16663 7.11336L2.66663 7.1145ZM6.09521 11.5714L6.46836 11.9042C6.59149 11.7662 6.62834 11.5714 6.56416 11.398C6.49998 11.2245 6.34525 11.1006 6.16193 11.0759L6.09521 11.5714ZM5.71426 13.3714H6.21426C6.21426 13.3606 6.21391 13.3497 6.2132 13.3389L5.71426 13.3714ZM5.21426 17.5714V18.0714H6.21426V17.5714H5.21426ZM5.54726 14.1001C4.90605 14.3274 4.50452 14.3007 4.23938 14.2023C3.96974 14.1022 3.75615 13.8968 3.55103 13.596C3.44858 13.4458 3.35481 13.2816 3.25806 13.1054C3.16526 12.9364 3.06357 12.7445 2.96024 12.5731C2.76442 12.2482 2.47379 11.835 1.98923 11.6919L1.70596 12.6509C1.79274 12.6766 1.91394 12.7743 2.10379 13.0893C2.19329 13.2378 2.27789 13.398 2.38151 13.5867C2.48118 13.7683 2.59394 13.9674 2.72483 14.1594C2.98637 14.5429 3.34662 14.9375 3.89131 15.1398C4.44051 15.3437 5.09381 15.3218 5.88126 15.0427L5.54726 14.1001ZM10.7857 13.2964C10.7857 12.6083 10.8296 11.8552 10.2773 11.238L9.53213 11.9049C9.77852 12.1802 9.78568 12.4846 9.78568 13.2964H10.7857ZM9.96475 12.0678C10.9313 11.9509 11.932 11.6888 12.678 10.9091C13.4275 10.1258 13.8333 8.91317 13.8333 7.095H12.8333C12.8333 8.78233 12.4552 9.69546 11.9555 10.2177C11.4524 10.7436 10.7389 10.9669 9.8447 11.075L9.96475 12.0678ZM13.8333 7.09357C13.8304 6.07648 13.4711 5.09179 12.8188 4.35585L12.0705 5.01915C12.5516 5.56194 12.831 6.30771 12.8333 7.09643L13.8333 7.09357ZM12.9173 4.85066C13.0706 4.40652 13.1437 3.93415 13.1332 3.46035L12.1335 3.48238C12.1413 3.83944 12.0861 4.19375 11.972 4.52434L12.9173 4.85066ZM13.1332 3.46035C13.1228 2.98656 13.029 2.51847 12.856 2.08277L11.9266 2.45173C12.0549 2.77489 12.1256 3.12533 12.1335 3.48238L13.1332 3.46035ZM12.3913 2.26725C12.5443 1.79123 12.5438 1.79107 12.5433 1.79091C12.5431 1.79085 12.5426 1.79068 12.5422 1.79057C12.5415 1.79035 12.5408 1.79013 12.5401 1.7899C12.5386 1.78944 12.5371 1.78898 12.5356 1.78852C12.5325 1.78758 12.5292 1.78662 12.5257 1.78563C12.5188 1.78366 12.5111 1.78162 12.5027 1.77954C12.4858 1.77538 12.4661 1.77113 12.4433 1.76719C12.3977 1.7593 12.3405 1.75275 12.2717 1.75068C12.1336 1.74653 11.9512 1.76049 11.7223 1.8155C11.2658 1.92522 10.6272 2.19745 9.78004 2.81301L10.3679 3.62199C11.1381 3.0623 11.6581 2.8594 11.956 2.78781C12.1043 2.75217 12.198 2.74892 12.2416 2.75023C12.2637 2.75089 12.2739 2.75274 12.2728 2.75256C12.2724 2.75248 12.2692 2.75191 12.2634 2.75048C12.2605 2.74976 12.2569 2.74884 12.2527 2.74765C12.2507 2.74705 12.2484 2.74639 12.246 2.74567C12.2448 2.7453 12.2435 2.74492 12.2423 2.74452C12.2416 2.74432 12.241 2.74411 12.2403 2.74391C12.24 2.7438 12.2395 2.74364 12.2393 2.74359C12.2388 2.74343 12.2383 2.74326 12.3913 2.26725ZM10.2147 2.7377C8.76285 2.31197 7.23708 2.31197 5.78527 2.7377L6.06666 3.6973C7.33475 3.32544 8.66519 3.32544 9.93327 3.6973L10.2147 2.7377ZM6.21981 2.81296C5.37241 2.19744 4.73381 1.92523 4.27743 1.81551C4.04859 1.76049 3.86624 1.74653 3.72816 1.75068C3.6593 1.75275 3.60218 1.75931 3.55657 1.7672C3.53379 1.77114 3.51399 1.7754 3.49713 1.77956C3.4887 1.78164 3.48102 1.78369 3.47408 1.78566C3.47061 1.78665 3.46732 1.78761 3.46423 1.78855C3.46268 1.78902 3.46118 1.78948 3.45972 1.78994C3.45899 1.79017 3.45828 1.79039 3.45757 1.79061C3.45722 1.79073 3.4567 1.79089 3.45653 1.79095C3.45601 1.79111 3.4555 1.79128 3.60863 2.26725C3.76177 2.74322 3.76126 2.74338 3.76076 2.74355C3.76059 2.7436 3.76009 2.74376 3.75976 2.74386C3.7591 2.74407 3.75844 2.74428 3.7578 2.74448C3.75652 2.74488 3.75527 2.74526 3.75407 2.74563C3.75165 2.74636 3.7494 2.74702 3.7473 2.74761C3.74311 2.74881 3.73955 2.74974 3.73664 2.75046C3.73081 2.75189 3.72761 2.75247 3.72712 2.75255C3.72607 2.75273 3.73623 2.75089 3.75821 2.75023C3.80181 2.74892 3.89542 2.75216 4.04367 2.7878C4.34146 2.85939 4.86152 3.06231 5.63212 3.62204L6.21981 2.81296ZM3.14391 2.08277C2.97095 2.51847 2.87715 2.98656 2.86671 3.46035L3.86647 3.48238C3.87434 3.12533 3.94507 2.77489 4.07336 2.45173L3.14391 2.08277ZM2.86671 3.46035C2.85627 3.93415 2.92934 4.40652 3.08267 4.85066L4.02793 4.52434C3.91381 4.19375 3.8586 3.83944 3.86647 3.48238L2.86671 3.46035ZM3.18115 4.35582C2.85525 4.72345 2.59967 5.1567 2.42655 5.62949L3.36558 5.97333C3.49745 5.61319 3.68991 5.28939 3.92945 5.01918L3.18115 4.35582ZM2.42655 5.62949C2.25344 6.10226 2.16548 6.60713 2.16663 7.11564L3.16663 7.11336C3.16574 6.72104 3.23371 6.33348 3.36558 5.97333L2.42655 5.62949ZM2.16663 7.1145C2.16663 8.92111 2.57304 10.1228 3.32319 10.901C4.06802 11.6737 5.06678 11.9375 6.0285 12.067L6.16193 11.0759C5.26298 10.9549 4.54745 10.7302 4.04316 10.207C3.54418 9.68939 3.16663 8.78789 3.16663 7.1145H2.16663ZM5.72207 11.2386C5.43695 11.5583 5.30726 11.9602 5.24829 12.3282C5.18877 12.6996 5.19427 13.0815 5.21532 13.404L6.2132 13.3389C6.19425 13.0486 6.19323 12.7514 6.23569 12.4864C6.27869 12.218 6.35948 12.0263 6.46836 11.9042L5.72207 11.2386ZM5.21426 13.3714V17.5714H6.21426V13.3714H5.21426ZM10.7857 17.5714V13.2964H9.78568V17.5714H10.7857Z" fill="white"/>
</svg>
