<svg width="18" height="18" viewBox="0 0 18 18" fill="none" xmlns="http://www.w3.org/2000/svg">
<path d="M13.1905 5.19051H13.9524M4.42857 1.38098H13.5714C15.2546 1.38098 16.619 2.74545 16.619 4.4286V13.5715C16.619 15.2546 15.2546 16.6191 13.5714 16.6191H4.42857C2.74542 16.6191 1.38095 15.2546 1.38095 13.5715V4.4286C1.38095 2.74545 2.74542 1.38098 4.42857 1.38098ZM9 12.0476C7.31684 12.0476 5.95238 10.6832 5.95238 9.00003C5.95238 7.31688 7.31684 5.95241 9 5.95241C10.6832 5.95241 12.0476 7.31688 12.0476 9.00003C12.0476 10.6832 10.6832 12.0476 9 12.0476Z" stroke="white"/>
</svg>
