<svg width="16" height="16" viewBox="0 0 16 16" fill="none" xmlns="http://www.w3.org/2000/svg">
<path d="M1.14285 1.14288V0.642883H0.642853V1.14288H1.14285ZM14.8571 1.14288H15.3571V0.642883H14.8571V1.14288ZM14.8571 9.52384L15.2107 9.87739L15.3571 9.73094V9.52384H14.8571ZM11.8095 12.5715V13.0715H12.0166L12.1631 12.925L11.8095 12.5715ZM6.47619 12.5715V12.0715H6.24622L6.09656 12.2461L6.47619 12.5715ZM4.19047 15.2381H3.69047C3.69047 15.4474 3.82076 15.6345 4.017 15.7071C4.21324 15.7797 4.43393 15.7224 4.5701 15.5635L4.19047 15.2381ZM4.19047 12.5715H4.69047V12.0715H4.19047V12.5715ZM1.14285 12.5715H0.642853V13.0715H1.14285V12.5715ZM1.14285 1.64288H14.8571V0.642883H1.14285V1.64288ZM14.3571 1.14288V9.52384H15.3571V1.14288H14.3571ZM14.5036 9.17028L11.456 12.2179L12.1631 12.925L15.2107 9.87739L14.5036 9.17028ZM11.8095 12.0715H6.47619V13.0715H11.8095V12.0715ZM6.09656 12.2461L3.81084 14.9127L4.5701 15.5635L6.85581 12.8968L6.09656 12.2461ZM4.69047 15.2381V12.5715H3.69047V15.2381H4.69047ZM4.19047 12.0715H1.14285V13.0715H4.19047V12.0715ZM1.64285 12.5715V1.14288H0.642853V12.5715H1.64285ZM11.3095 3.80955V9.14288H12.3095V3.80955H11.3095ZM8.2619 3.80955V9.14288H9.2619V3.80955H8.2619Z" fill="white"/>
</svg>
