<svg width="18" height="16" viewBox="0 0 18 16" fill="none" xmlns="http://www.w3.org/2000/svg">
<path d="M16.5955 1.5238L17.0944 1.49073C17.0811 1.29016 16.949 1.11705 16.7591 1.0513C16.5691 0.985559 16.3582 1.03996 16.2238 1.1894L16.5955 1.5238ZM16.0088 4.74438C16.0088 4.46824 15.7849 4.24438 15.5088 4.24438C15.2326 4.24438 15.0088 4.46824 15.0088 4.74438H16.0088ZM9 5.71428V6.21428H9.5V5.71428H9ZM2.46771 1.5238L2.93596 1.34848C2.86619 1.16214 2.69258 1.03491 2.49389 1.02449C2.29519 1.01407 2.10923 1.12245 2.02036 1.30047L2.46771 1.5238ZM6.71428 11.4286L7.06811 11.7818C7.19047 11.6593 7.24071 11.4822 7.20089 11.3136C7.16108 11.1451 7.03688 11.0091 6.87262 10.9543L6.71428 11.4286ZM1.38095 13.4966V12.9966C1.16068 12.9966 0.966362 13.1407 0.902457 13.3515C0.838551 13.5623 0.920118 13.7901 1.1033 13.9124L1.38095 13.4966ZM14.6773 2.58327L14.3065 2.91861L14.4866 3.11785L14.7522 3.07763L14.6773 2.58327ZM16.0966 1.55688C16.1529 2.40569 16.1014 2.92677 15.9611 3.32205C15.8246 3.70687 15.5866 4.02204 15.1628 4.4281L15.8547 5.15012C16.329 4.69565 16.6923 4.2521 16.9036 3.65637C17.1112 3.0711 17.154 2.38979 17.0944 1.49073L16.0966 1.55688ZM16.0088 5.5374V4.78911H15.0088V5.5374H16.0088ZM16.0088 4.78911V4.74438H15.0088V4.78911H16.0088ZM8.5 4.95237V5.71428H9.5V4.95237H8.5ZM12.2932 1.0238C10.1663 1.0238 8.5 2.8743 8.5 4.95237H9.5C9.5 3.37428 10.7695 2.0238 12.2932 2.0238V1.0238ZM15.0088 5.5374C15.0088 10.268 11.0366 14.3571 6.33333 14.3571V15.3571C11.6084 15.3571 16.0088 10.8006 16.0088 5.5374H15.0088ZM1.99945 1.69913C2.59458 3.28859 4.82421 6.21428 9 6.21428V5.21428C5.35115 5.21428 3.42759 2.66151 2.93596 1.34848L1.99945 1.69913ZM2.02036 1.30047C0.8865 3.57169 0.688846 5.79443 1.48069 7.68937C2.27254 9.58435 4.01308 11.0539 6.55595 11.9028L6.87262 10.9543C4.52509 10.1706 3.05558 8.86462 2.40337 7.30381C1.75114 5.74298 1.8754 3.82966 2.91506 1.74713L2.02036 1.30047ZM6.36046 11.0753C5.70715 11.7296 3.82753 12.9966 1.38095 12.9966V13.9966C4.1508 13.9966 6.27243 12.5788 7.06811 11.7818L6.36046 11.0753ZM15.0482 2.24792C14.3691 1.49691 13.3861 1.0238 12.2932 1.0238V2.0238C13.0914 2.0238 13.8088 2.36821 14.3065 2.91861L15.0482 2.24792ZM14.7522 3.07763C15.5695 2.95385 16.3679 2.52438 16.9672 1.85821L16.2238 1.1894C15.7733 1.69018 15.1819 2.00115 14.6025 2.0889L14.7522 3.07763ZM1.1033 13.9124C2.84169 15.0731 4.51524 15.3571 6.33333 15.3571V14.3571C4.63924 14.3571 3.18048 14.0969 1.6586 13.0808L1.1033 13.9124Z" fill="white"/>
</svg>
