<svg width="18" height="18" viewBox="0 0 18 18" fill="none" xmlns="http://www.w3.org/2000/svg">
<path d="M2.67688 15.2916L2.56712 15.7794H2.56712L2.67688 15.2916ZM15.3231 15.2916L15.4329 15.7794L15.3231 15.2916ZM15.4099 2.83097L15.5271 2.3449L15.4099 2.83097ZM2.59006 2.83097L2.70724 3.31705L2.59006 2.83097ZM7.47619 6.42858L7.75593 6.01415C7.60266 5.9107 7.40481 5.90028 7.24153 5.98706C7.07824 6.07385 6.97619 6.24366 6.97619 6.42858H7.47619ZM7.47619 11.5714H6.97619C6.97619 11.7563 7.07824 11.9262 7.24153 12.0129C7.40481 12.0997 7.60266 12.0893 7.75593 11.9859L7.47619 11.5714ZM11.2857 9L11.5654 9.41443C11.7032 9.32147 11.7857 9.16616 11.7857 9C11.7857 8.83384 11.7032 8.67854 11.5654 8.58558L11.2857 9ZM0.880951 4.51358V13.5132H1.88095V4.51358H0.880951ZM17.119 13.5132V4.51358H16.119V13.5132H17.119ZM2.56712 15.7794C6.81347 16.7348 11.1865 16.7348 15.4329 15.7794L15.2134 14.8038C11.1115 15.7267 6.88845 15.7267 2.78664 14.8038L2.56712 15.7794ZM15.5271 2.3449C11.2248 1.30772 6.77523 1.30772 2.47288 2.3449L2.70724 3.31705C6.85556 2.31701 11.1444 2.31701 15.2928 3.31705L15.5271 2.3449ZM17.119 4.51358C17.119 3.50954 16.4922 2.57756 15.5271 2.3449L15.2928 3.31705C15.7382 3.42442 16.119 3.89477 16.119 4.51358H17.119ZM16.119 13.5132C16.119 14.1833 15.7023 14.6938 15.2134 14.8038L15.4329 15.7794C16.451 15.5503 17.119 14.5721 17.119 13.5132H16.119ZM0.880951 13.5132C0.880951 14.5721 1.54903 15.5503 2.56712 15.7794L2.78664 14.8038C2.29768 14.6938 1.88095 14.1833 1.88095 13.5132H0.880951ZM1.88095 4.51358C1.88095 3.89477 2.26185 3.42442 2.70724 3.31705L2.47288 2.3449C1.50776 2.57756 0.880951 3.50954 0.880951 4.51358H1.88095ZM6.97619 6.42858V11.5714H7.97619V6.42858H6.97619ZM7.75593 11.9859L11.5654 9.41443L11.006 8.58558L7.19645 11.157L7.75593 11.9859ZM11.5654 8.58558L7.75593 6.01415L7.19645 6.843L11.006 9.41443L11.5654 8.58558Z" fill="white"/>
</svg>
